<?xml version="1.0" encoding="utf-8"?>
<!-- Generator: Adobe Illustrator 27.5.0, SVG Export Plug-In . SVG Version: 6.00 Build 0)  -->
<svg version="1.1" xmlns="http://www.w3.org/2000/svg" xmlns:xlink="http://www.w3.org/1999/xlink" x="0px" y="0px"
	 viewBox="0 0 750 500" style="enable-background:new 0 0 750 500;" xml:space="preserve">
<g id="Background_Complete">
	<polygon style="fill:#F5F5F5;" points="146.93,456.315 10.887,9.162 320.878,9.162 176.271,456.315 	"/>
	<rect x="146.93" y="456.315" style="fill:#E0E0E0;" width="29.341" height="29.341"/>
	<polygon style="fill:#FFFFFF;" points="180.01,55.266 161.208,93.392 181.816,132.547 199.779,92.965 	"/>
	<polygon style="fill:#FFFFFF;" points="143.988,94.003 132.297,117.71 145.111,142.057 156.28,117.445 	"/>
	<g>
		<polygon style="fill:#F5F5F5;" points="374.84,38.44 510.59,484.633 201.265,484.633 345.561,38.44 		"/>
		
			<rect x="345.561" y="9.162" transform="matrix(-1 -1.224647e-16 1.224647e-16 -1 720.4012 47.6026)" style="fill:#E0E0E0;" width="29.278" height="29.278"/>
		<polygon style="fill:#FFFFFF;" points="378.614,313.058 360.098,350.603 380.392,389.163 398.082,350.183 		"/>
		<polygon style="fill:#FFFFFF;" points="343.14,351.205 331.626,374.552 344.245,398.529 355.245,374.291 		"/>
		<polygon style="fill:#FFFFFF;" points="346.952,288.867 335.439,312.213 348.058,336.19 359.057,311.952 		"/>
	</g>
	<g>
		<polygon style="fill:#F5F5F5;" points="542.891,455.355 407.141,9.162 716.466,9.162 572.169,455.355 		"/>
		<rect x="542.891" y="455.355" style="fill:#E0E0E0;" width="29.278" height="29.278"/>
		<polygon style="fill:#FFFFFF;" points="615.782,61.454 597.021,99.498 617.584,138.569 635.509,99.072 		"/>
		<polygon style="fill:#FFFFFF;" points="589.004,132.369 577.338,156.025 590.124,180.32 601.27,155.76 		"/>
	</g>
	<g>
		<path style="fill:#FFFFFF;" d="M633.339,184.791l0.833,1.524c1.288,2.354,3.224,4.29,5.578,5.578l1.523,0.833l-1.523,0.833
			c-2.354,1.288-4.29,3.223-5.578,5.578l-0.833,1.523l-0.833-1.523c-1.288-2.354-3.224-4.29-5.578-5.578l-1.523-0.833l1.523-0.833
			c2.354-1.288,4.29-3.224,5.578-5.578L633.339,184.791z"/>
		<path style="fill:#FFFFFF;" d="M617.579,202.355l0.37,0.677c0.572,1.046,1.432,1.905,2.477,2.477l0.677,0.37l-0.677,0.37
			c-1.046,0.572-1.905,1.432-2.477,2.477l-0.37,0.677l-0.37-0.677c-0.572-1.046-1.432-1.906-2.477-2.477l-0.677-0.37l0.677-0.37
			c1.046-0.572,1.905-1.432,2.477-2.477L617.579,202.355z"/>
		<path style="fill:#FFFFFF;" d="M639.422,176.474l0.37,0.677c0.572,1.046,1.432,1.906,2.477,2.477l0.677,0.37l-0.677,0.37
			c-1.046,0.572-1.906,1.432-2.477,2.477l-0.37,0.677l-0.37-0.677c-0.572-1.046-1.432-1.905-2.477-2.477l-0.677-0.37l0.677-0.37
			c1.046-0.572,1.906-1.432,2.477-2.477L639.422,176.474z"/>
	</g>
	<g>
		<path style="fill:#F5F5F5;" d="M49.558,219.033l1.212,2.215c1.872,3.424,4.687,6.238,8.111,8.111l2.215,1.212l-2.215,1.212
			c-3.424,1.872-6.238,4.687-8.111,8.111l-1.212,2.215l-1.212-2.215c-1.872-3.424-4.687-6.238-8.111-8.111l-2.215-1.212l2.215-1.212
			c3.424-1.872,6.238-4.687,8.111-8.111L49.558,219.033z"/>
		<path style="fill:#F5F5F5;" d="M26.642,244.573l0.538,0.984c0.832,1.521,2.082,2.771,3.602,3.602l0.984,0.538l-0.984,0.538
			c-1.521,0.832-2.771,2.082-3.602,3.602l-0.538,0.984l-0.538-0.984c-0.832-1.521-2.082-2.771-3.602-3.602l-0.984-0.538l0.984-0.538
			c1.521-0.832,2.771-2.082,3.602-3.602L26.642,244.573z"/>
		<path style="fill:#F5F5F5;" d="M58.404,206.939l0.538,0.984c0.832,1.521,2.082,2.771,3.602,3.602l0.984,0.538l-0.984,0.538
			c-1.521,0.832-2.771,2.082-3.602,3.602l-0.538,0.984l-0.538-0.984c-0.832-1.521-2.082-2.771-3.602-3.602l-0.984-0.538l0.984-0.538
			c1.52-0.832,2.771-2.082,3.602-3.602L58.404,206.939z"/>
	</g>
	<g>
		<path style="fill:#F5F5F5;" d="M661.785,358.427l1.358,2.482c2.098,3.836,5.252,6.99,9.088,9.088l2.482,1.358l-2.482,1.358
			c-3.836,2.098-6.99,5.252-9.088,9.088l-1.358,2.482l-1.358-2.482c-2.098-3.836-5.252-6.99-9.088-9.088l-2.482-1.358l2.482-1.358
			c3.836-2.098,6.99-5.252,9.088-9.088L661.785,358.427z"/>
		<path style="fill:#F5F5F5;" d="M636.107,387.045l0.603,1.103c0.932,1.704,2.333,3.105,4.036,4.036l1.102,0.603l-1.102,0.603
			c-1.704,0.932-3.105,2.333-4.036,4.036l-0.603,1.102l-0.603-1.102c-0.932-1.704-2.333-3.105-4.036-4.036l-1.102-0.603l1.102-0.603
			c1.704-0.932,3.105-2.333,4.036-4.036L636.107,387.045z"/>
		<path style="fill:#F5F5F5;" d="M671.697,344.875l0.603,1.103c0.932,1.704,2.333,3.105,4.036,4.036l1.103,0.603l-1.103,0.603
			c-1.704,0.932-3.105,2.333-4.036,4.036l-0.603,1.102l-0.603-1.102c-0.932-1.704-2.333-3.105-4.036-4.036l-1.102-0.603l1.102-0.603
			c1.704-0.932,3.105-2.333,4.036-4.036L671.697,344.875z"/>
	</g>
	<g>
		<path style="fill:#FFFFFF;" d="M353.848,153.381l0.833,1.523c1.288,2.354,3.224,4.29,5.578,5.578l1.523,0.833l-1.523,0.833
			c-2.354,1.288-4.29,3.223-5.578,5.578l-0.833,1.523l-0.833-1.523c-1.288-2.355-3.224-4.29-5.578-5.578l-1.523-0.833l1.523-0.833
			c2.354-1.288,4.29-3.224,5.578-5.578L353.848,153.381z"/>
		<path style="fill:#FFFFFF;" d="M334.564,149.857l0.37,0.677c0.572,1.046,1.432,1.906,2.477,2.477l0.677,0.37l-0.677,0.37
			c-1.046,0.572-1.905,1.432-2.477,2.477l-0.37,0.677l-0.37-0.677c-0.572-1.046-1.432-1.905-2.477-2.477l-0.677-0.37l0.677-0.37
			c1.046-0.572,1.905-1.432,2.477-2.477L334.564,149.857z"/>
		<path style="fill:#FFFFFF;" d="M359.931,113.903l0.37,0.677c0.572,1.046,1.432,1.905,2.477,2.477l0.677,0.37l-0.677,0.37
			c-1.046,0.572-1.906,1.432-2.477,2.477l-0.37,0.677l-0.37-0.677c-0.572-1.046-1.432-1.906-2.477-2.477l-0.677-0.37l0.677-0.37
			c1.046-0.572,1.905-1.432,2.477-2.477L359.931,113.903z"/>
	</g>
	<g>
		<path style="fill:#FFFFFF;" d="M161.448,346.27l0.833,1.523c1.288,2.354,3.224,4.29,5.578,5.578l1.523,0.833l-1.523,0.833
			c-2.354,1.288-4.29,3.224-5.578,5.578l-0.833,1.523l-0.833-1.523c-1.288-2.354-3.223-4.29-5.578-5.578l-1.523-0.833l1.523-0.833
			c2.355-1.288,4.29-3.224,5.578-5.578L161.448,346.27z"/>
		<path style="fill:#FFFFFF;" d="M142.164,342.746l0.37,0.677c0.572,1.046,1.432,1.906,2.477,2.477l0.677,0.37l-0.677,0.37
			c-1.046,0.572-1.906,1.432-2.477,2.477l-0.37,0.677l-0.37-0.677c-0.572-1.046-1.432-1.905-2.477-2.477l-0.677-0.37l0.677-0.37
			c1.046-0.572,1.906-1.432,2.477-2.477L142.164,342.746z"/>
		<path style="fill:#FFFFFF;" d="M167.531,306.792l0.37,0.677c0.572,1.046,1.432,1.906,2.477,2.477l0.677,0.37l-0.677,0.37
			c-1.046,0.572-1.906,1.432-2.477,2.477l-0.37,0.677l-0.37-0.677c-0.572-1.046-1.432-1.905-2.477-2.477l-0.677-0.37l0.677-0.37
			c1.046-0.572,1.905-1.432,2.477-2.477L167.531,306.792z"/>
	</g>
</g>
<g id="Background_Simple" style="display:none;">
	<path style="display:inline;fill:#F5F5F5;" d="M133.162,196.421l0.977-5.536c8.231-46.668,40.808-85.537,85.56-99.759
		c5.753-1.828,11.639-3.242,17.613-4.206c43.017-6.941,89.248,9.654,118.526,42.546c17.219,19.344,29.698,44.472,52.665,56.211
		c29.889,15.277,65.494,2.278,96.17-10.765c30.676-13.042,66.34-25.959,96.164-10.55c18.678,9.65,30.922,28.94,37.527,49.022
		c17.487,53.167-0.7,113.858-37.86,154.958c-37.16,41.1-90.703,64.307-145.184,73.767c-76.321,13.253-158.861,0.243-222.847-44.541
		C168.486,352.785,126.19,274.322,133.162,196.421z"/>
	
		<ellipse transform="matrix(0.1618 -0.9868 0.9868 0.1618 438.383 715.6925)" style="display:inline;fill:#F5F5F5;" cx="640.501" cy="99.782" rx="32.699" ry="32.699"/>
	
		<ellipse transform="matrix(0.2298 -0.9732 0.9732 0.2298 -316.7585 406.1971)" style="display:inline;fill:#F5F5F5;" cx="98.247" cy="403.219" rx="32.699" ry="32.699"/>
</g>
<g id="Floor">
	<g>
		<path style="fill:#263238;" d="M703.949,484.633c0,0.144-152.218,0.26-339.945,0.26c-187.792,0-339.978-0.117-339.978-0.26
			s152.186-0.26,339.978-0.26C551.73,484.372,703.949,484.489,703.949,484.633z"/>
	</g>
</g>
<g id="Character_2">
	<g>
		<path style="fill:#FFBF9D;" d="M488.659,423.605c-0.322,0.751-7.402,13.517-8.26,14.161c-0.858,0.644-7.824,2.378-9.548,0
			c-1.724-2.378-5.622-6.766-5.547-9.176c0.076-2.41,0.934-4.234,1.363-4.341c0.429-0.107-0.751-1.824-0.429-3.433
			c0.322-1.609,1.716-2.146,1.716-2.146s12.873-2.789,13.195-2.575C481.472,416.31,488.659,423.605,488.659,423.605z"/>
		<path style="fill:#FFBF9D;" d="M484.533,172.461c0,0-4.039-8.73-6.363-10.744c-2.324-2.014-11.23-2.401-12.47-1.239
			c-1.239,1.162-1.696,3.02-1.158,4.415c0,0-1.623,2.879,0,5.506c0,0-1.7,2.007,0,4.64c1.7,2.633,3.946,1.162,4.256,0.465
			c0.31-0.697-0.62-3.042-0.62-3.042s0.825-0.883,1.162-2.379c0.336-1.497-0.465-2.401-0.465-2.401l9.681,0.507L484.533,172.461z"/>
		<g>
			<rect x="467.116" y="7.962" style="fill:#E0E0E0;" width="10.373" height="476.671"/>
			<g>
				<path style="fill:#263238;" d="M477.489,484.633c-0.002-2.839-0.116-212.414-0.26-476.671l0.26,0.26c-3.268,0-6.804,0-10.35,0
					h-0.023l0.26-0.26c-0.102,234.814-0.187,430.736-0.207,476.671l-0.053-0.053C473.906,484.615,477.127,484.631,477.489,484.633
					c-0.362,0.002-3.583,0.018-10.373,0.053l-0.053,0v-0.054c-0.02-45.935-0.105-241.857-0.207-476.671V7.701h0.26h0.023
					c3.545,0,7.082,0,10.35,0h0.26l0,0.26C477.605,272.219,477.491,481.796,477.489,484.633z"/>
			</g>
		</g>
		<path style="fill:#FFBF9D;" d="M479.648,421.781c-0.429,0.215-5.149,4.72-5.9,8.475c0,0-7.295,1.073-8.046,1.824
			c-0.751,0.751-0.536,2.789,1.502,3.218c2.038,0.429,9.762-0.644,10.728-1.073c0.966-0.429,6.759-6.222,6.759-6.222
			L479.648,421.781z"/>
		<path style="fill:#FFBF9D;" d="M495.589,320.591c-0.189,0.536-11.742,31.06-13.825,43.181
			c-2.083,12.121-3.025,52.676-3.025,52.676l9.921,7.158c0,0,8.823-38.622,9.581-47.145c0.758-8.522,0.758-11.932,2.273-18.749
			c1.515-6.818,10.795-22.537,10.984-23.295c0.189-0.757,6.439-19.886,3.977-23.484
			C513.012,307.333,497.179,316.073,495.589,320.591z"/>
		<g>
			<g>
				<g>
					<path style="fill:#263238;" d="M535.153,391.957c-1.884-17.097,3.769-32.954,1.885-50.051l-0.055-2.543
						c3.703-4.896,12.925-2.582,17.015,0.597c4.09,3.179,5.633,7.794,5.858,12.225c0.225,4.431-0.699,8.85-0.77,13.284
						c-0.17,10.688,4.56,21.694,0.171,31.855l-15.919-1.363l-1.229-8.76l-1.892,7.201L535.153,391.957z"/>
				</g>
				<g>
					<path style="fill:#455A64;" d="M546.124,342.981c0.146,2.116,0.282,4.272-0.224,6.331c-0.506,2.06-1.764,4.045-3.707,4.895
						c-0.915,0.4-2.053,0.504-2.857-0.088c-0.804-0.591-0.934-2.028-0.067-2.522l0.072-0.269c0.721-2.868,1.499-5.722,2.333-8.56
						c0.21-0.714,0.434-1.447,0.898-2.029c0.465-0.582,1.232-0.985,1.955-0.805C545.722,340.232,546.04,341.753,546.124,342.981z"/>
				</g>
				<g>
					<g>
						<path style="fill:#263238;" d="M543.191,348.698c-3.716,8.451-10.176,14.519-19.028,17.141
							c-4.994,1.479-7.36,1.015-11.245,1.045c-3.884,0.031-7.684-1-10.691-3.46c-3.571-2.921-6.854-6.391-8.568-10.675
							c-1.76-4.4-3.53-8.831-4.454-13.479c-0.925-4.648-0.964-9.578,0.688-14.02l11.025-5.237
							c6.337-1.999,12.765-4.014,19.405-4.289c6.639-0.275,13.629,1.393,18.487,5.926
							C545.559,327.949,546.907,340.247,543.191,348.698z"/>
					</g>
					<g>
						<path style="fill:#FFBF9D;" d="M532.904,351.643l-13.735,10.437l-4.165,0.654c-9.087,2.494-18.135-5.775-20.241-13.111
							c-2.34-8.15-4.875-18.193-5.253-24.575c-0.76-12.833,9.293-16.717,9.293-16.717l-1.542-5.004l-7.287-13.098l10.667-8.753
							l21.955-4.548l-1.287,18.91l14.524,50.522C536.376,348.615,535.103,350.91,532.904,351.643z"/>
					</g>
					<g>
						<path style="fill:#FF9A6C;" d="M508.459,322.827c0.094,0.661-0.104,1.324-0.449,1.838c-0.689,1.027-1.99,1.47-3.145,1.072
							c-1.154-0.399-2.09-1.615-2.262-2.939l0,0c0.336-0.898,1.027-1.634,1.925-1.97c0.14-0.052,0.282-0.097,0.427-0.134
							c0.703-0.176,1.479-0.138,2.155,0.228C507.787,321.288,508.344,322.011,508.459,322.827z"/>
					</g>
					<g>
						<path style="fill:#263238;" d="M497.527,337.401c-0.215-0.834,0.314-1.702,1.18-1.942c0.864-0.24,1.74,0.239,1.955,1.073
							c0.214,0.833-0.314,1.703-1.178,1.942C498.618,338.715,497.741,338.234,497.527,337.401z"/>
					</g>
					<g>
						<path style="fill:#263238;" d="M496.393,344.77c0.152-0.251,1.553,0.376,3.263-0.005c1.714-0.356,2.776-1.513,3.008-1.344
							c0.112,0.072-0.007,0.491-0.466,1.01c-0.451,0.515-1.285,1.102-2.351,1.333c-1.067,0.229-2.051,0.033-2.654-0.255
							C496.578,345.22,496.317,344.884,496.393,344.77z"/>
					</g>
					<g>
						<path style="fill:#263238;" d="M503.546,328.536c0.029,0.095-0.994,0.513-2.669,1.113c-0.427,0.141-0.822,0.319-0.83,0.634
							c-0.033,0.339,0.253,0.769,0.577,1.231c0.644,0.967,1.318,1.981,2.025,3.043c2.837,4.342,4.994,7.952,4.818,8.064
							c-0.176,0.113-2.619-3.315-5.456-7.658c-0.689-1.073-1.347-2.096-1.974-3.075c-0.275-0.46-0.683-0.961-0.604-1.665
							c0.046-0.353,0.315-0.66,0.578-0.797c0.261-0.147,0.506-0.206,0.719-0.266C502.444,328.684,503.518,328.44,503.546,328.536z"
							/>
					</g>
					<g>
						<path style="fill:#FF9A6C;" d="M498.787,308.35c0,0,8.224-2.374,17.581,0.775c0,0-6.315-7.621-18.471-3.73L498.787,308.35z"/>
					</g>
					<g>
						<path style="fill:#263238;" d="M508.322,326.244c-0.275,0.077-0.687-1.779-2.567-2.748c-1.878-0.974-3.812-0.329-3.884-0.586
							c-0.052-0.111,0.362-0.458,1.192-0.664c0.814-0.208,2.069-0.208,3.219,0.384c1.148,0.595,1.803,1.582,2.034,2.33
							C508.557,325.72,508.451,326.226,508.322,326.244z"/>
					</g>
					<g>
						<path style="fill:#263238;" d="M498.61,350.513c0.196-0.481,1.568-0.49,3.071-0.954c1.518-0.416,2.683-1.146,3.102-0.844
							c0.19,0.151,0.113,0.595-0.326,1.132c-0.431,0.533-1.249,1.12-2.287,1.423c-1.038,0.302-2.04,0.246-2.686,0.026
							C498.829,351.077,498.53,350.743,498.61,350.513z"/>
					</g>
					<g>
						<path style="fill:#263238;" d="M516.288,333.175c-0.187-0.84-1.052-1.375-1.933-1.195c-0.879,0.178-1.442,1.002-1.256,1.842
							c0.187,0.84,1.052,1.375,1.931,1.197C515.912,334.84,516.475,334.014,516.288,333.175z"/>
					</g>
					<g>
						<path style="fill:#263238;" d="M519.385,339.073c-0.249-0.155-1.213,1.039-2.911,1.475c-1.689,0.46-3.161-0.09-3.29,0.166
							c-0.066,0.115,0.229,0.434,0.873,0.689c0.636,0.254,1.645,0.4,2.7,0.121c1.055-0.28,1.843-0.9,2.25-1.43
							C519.425,339.558,519.506,339.14,519.385,339.073z"/>
					</g>
					<g>
						<path style="fill:#263238;" d="M519.875,344.756c-0.434-0.298-1.639,0.441-3.207,0.868c-1.555,0.476-2.973,0.496-3.175,0.978
							c-0.084,0.23,0.226,0.562,0.903,0.775c0.668,0.214,1.704,0.262,2.778-0.048c1.073-0.311,1.919-0.903,2.364-1.44
							C519.992,345.35,520.071,344.905,519.875,344.756z"/>
					</g>
					<g>
						<path style="fill:#FFBF9D;" d="M528.022,326.42c0.205,0.923,1.752,2.865,2.695,2.807c2.519-0.156,6.865-1.318,5.545-7.512
							c-1.805-8.466-9.933-4.908-9.897-4.662C526.395,317.245,527.313,323.233,528.022,326.42z"/>
					</g>
					<g>
						<path style="fill:#FF9A6C;" d="M529.362,319.648c0.043,0.019,0.125-0.135,0.35-0.302c0.22-0.163,0.621-0.329,1.098-0.258
							c0.964,0.138,2.02,1.397,2.386,2.915c0.186,0.766,0.181,1.534,0.038,2.2c-0.127,0.674-0.435,1.192-0.868,1.368
							c-0.426,0.199-0.802-0.003-0.957-0.218c-0.164-0.213-0.146-0.394-0.194-0.398c-0.028-0.016-0.151,0.18-0.009,0.515
							c0.071,0.161,0.213,0.34,0.447,0.46c0.238,0.122,0.555,0.142,0.862,0.042c0.643-0.185,1.103-0.91,1.261-1.641
							c0.193-0.742,0.217-1.609,0.008-2.469c-0.418-1.695-1.631-3.105-2.931-3.198c-0.628-0.028-1.087,0.257-1.301,0.512
							C529.333,319.44,529.329,319.639,529.362,319.648z"/>
					</g>
					<g>
						<path style="fill:#263238;" d="M531.051,329.109l-2.726-1.605c-6.7,11.284-18.457,38.141-17.824,36.559
							c0,0,6.973,0.832,13.442-2.215c6.469-3.047,18.404-10.031,15.977-17.986C537.494,335.907,531.051,329.109,531.051,329.109z"/>
					</g>
				</g>
				<g>
					<g>
						<path style="fill:#455A64;" d="M535.835,319.281c0.023-0.03,0.326,0.151,0.852,0.51c0.524,0.362,1.279,0.894,2.149,1.643
							c0.87,0.739,1.841,1.755,2.653,3.045c0.827,1.278,1.587,2.765,2.269,4.373c1.44,3.24,1.607,6.507,1.577,8.771
							c-0.024,1.145-0.127,2.066-0.227,2.697c-0.098,0.632-0.192,0.974-0.227,0.968c-0.094-0.012,0.104-1.408,0.056-3.666
							c-0.072-2.24-0.298-5.412-1.697-8.553c-1.331-3.179-2.955-5.867-4.671-7.342C536.91,320.204,535.772,319.358,535.835,319.281z
							"/>
					</g>
				</g>
			</g>
			<g>
				<path style="fill:#263238;" d="M531.348,392.98c-0.302,0.091-1.243-1.892-1.287-5.341c-0.033-1.712,0.193-3.743,0.661-5.926
					c0.468-2.184,1.186-4.511,2.009-6.891c1.679-4.727,3.079-8.909,3.582-12.053c0.56-3.128,0.444-5.15,0.836-5.211
					c0.312-0.07,1.107,1.962,0.996,5.396c-0.044,1.706-0.342,3.719-0.863,5.881c-0.52,2.163-1.27,4.469-2.09,6.837
					c-1.668,4.702-2.931,8.917-3.293,12.07C531.482,390.883,531.738,392.895,531.348,392.98z"/>
			</g>
		</g>
		<g>
			<path style="fill:#FFBF9D;" d="M513.353,209.401c0,0-27.343,18.873-31.651,36.193c-4.308,17.32-5.91,34.1-3.63,39.422
				c2.28,5.321,19.188,18.312,19.188,18.312l17.553-1.082l8.108-0.253l3.801-35.221c0,0,2.534-13.176,5.828-17.99
				c3.294-4.814,11.696-7.185,11.696-7.185l-1.561-21.702L513.353,209.401z"/>
			<path style="fill:#FF725E;" d="M528.538,259.079c-1.126,4.111-1.815,7.692-1.815,7.692l-3.801,35.221l-8.108,0.253l-17.553,1.082
				c0,0-16.907-12.991-19.188-18.312c-2.106-4.913-1.4-18.975,2.111-35.355c0.291-1.359,1.842-5.971,1.842-5.971L528.538,259.079z"
				/>
		</g>
		<path style="fill:#FFBF9D;" d="M504.76,299.918c0,0,7.855-0.253,10.135-12.416c2.281-12.163-13.462-46.291-15.483-55.161
			c-2.04-8.953-6.755-36.774-8.633-44.271c-1.442-5.754-3.708-11.362-3.708-11.362l-7.73,4.128c0,0,4.394,55.331,4.895,65.364
			c0.501,10.033,4.814,34.714,5.068,38.515C489.557,288.515,496.399,301.185,504.76,299.918z"/>
		<g>
			<path style="fill:#FFBF9D;" d="M468.293,68.475c0.578-2.719,1.158-5.504,0.782-8.258c-0.377-2.754-1.908-5.518-4.469-6.597
				c-2.542-1.071-5.462-0.303-8.196-0.667c-4.133-0.551-7.444-3.597-10.33-6.606c-2.886-3.01-5.853-6.267-9.844-7.476
				c-1.373-0.416-2.934-0.547-4.183,0.159c-1.094,0.618-1.776,1.787-2.152,2.987c-0.906,2.897-0.268,6.093,1.035,8.834
				c1.303,2.742,3.227,5.13,5.039,7.566c6.331,8.512,16.67,19.31,25.279,25.51"/>
			<path style="fill:#263238;" d="M540.905,242.812l5.356-2.011c9.728-5.059,29.33-18.611,27.233-41.213
				c-2.771-29.867-44.955-56.655-49.573-63.429s-11.701-28.636-20.938-39.105c-9.237-10.469-34.178-28.636-34.178-28.636
				l-12.624,12.624c0,0,28.943,28.02,36.333,48.034c7.39,20.014,30.791,62.814,30.791,62.814l2.771,6.158l-16.011,12.624
				L540.905,242.812z"/>
		</g>
		<path style="fill:#FFBF9D;" d="M487.344,177.181c0,0-5.71-10.305-8.328-12.19c-2.618-1.885-10.366-1.989-12.146-1.361
			c-1.78,0.628-3.036,2.199-1.885,3.56c1.152,1.361,9.319,1.885,9.319,1.885s1.404,5.13,2.112,9.424
			c0.086,0.523,3.513,3.139,3.513,3.139L487.344,177.181z"/>
		<g>
			<path style="fill:#FFBF9D;" d="M700.667,285.357c-0.435,2.704,0.561,5.597,2.569,7.46c2.008,1.863,4.967,2.64,7.631,2.004
				c2.544-0.607,4.916-2.41,7.497-1.986c2.002,0.329,3.516,1.917,5.211,3.033c2.557,1.683,5.771,2.337,8.783,1.787
				c2.167-0.396,4.516-1.824,4.586-4.026c0.058-1.798-1.415-3.235-2.789-4.397c-8.302-7.018-17.542-13.353-28.083-16.011"/>
			<path style="fill:#263238;" d="M540.548,237.769c0,0,9.545,11.393,21.246,9.545c11.701-1.847,17.243-4.671,17.243-4.671
				s36.641,8.674,44.647,13.293c8.006,4.619,24.017,16.011,35.41,19.706c11.393,3.695,41.26,10.161,41.26,10.161l6.774-12.932
				c0,0-52.037-24.633-61.89-31.715c-9.853-7.082-53.593-35.096-71.598-38.794l-18.62,11.082L540.548,237.769z"/>
			<g>
				<path style="fill:#455A64;" d="M573.649,201.753c0.018,0.001,0.021,0.186,0.009,0.537c-0.02,0.41-0.045,0.917-0.076,1.535
					c-0.027,0.668-0.091,1.482-0.221,2.422c-0.115,0.942-0.225,2.018-0.468,3.19c-0.109,0.59-0.224,1.206-0.342,1.846
					c-0.16,0.635-0.326,1.293-0.497,1.974c-0.161,0.686-0.354,1.387-0.603,2.095c-0.239,0.71-0.458,1.452-0.735,2.194
					c-1.11,2.966-2.693,6.102-4.809,9.088c-1.032,1.516-2.234,2.844-3.385,4.129c-0.621,0.599-1.231,1.187-1.829,1.764
					c-0.583,0.592-1.26,1.052-1.863,1.566c-1.198,1.043-2.504,1.807-3.66,2.61c-1.196,0.741-2.369,1.335-3.408,1.924
					c-1.081,0.486-2.065,0.929-2.943,1.324c-0.861,0.401-1.656,0.613-2.28,0.849c-0.586,0.197-1.068,0.359-1.456,0.49
					c-0.335,0.106-0.513,0.154-0.518,0.137c-0.006-0.017,0.161-0.098,0.484-0.236c0.379-0.155,0.848-0.347,1.419-0.58
					c0.61-0.265,1.391-0.503,2.236-0.927c0.862-0.413,1.828-0.876,2.89-1.384c1.02-0.606,2.171-1.213,3.345-1.962
					c1.133-0.811,2.416-1.578,3.59-2.619c0.591-0.512,1.257-0.97,1.828-1.559c0.587-0.572,1.186-1.155,1.796-1.749
					c1.13-1.272,2.313-2.583,3.33-4.078c2.087-2.945,3.662-6.031,4.784-8.956c0.28-0.731,0.503-1.463,0.747-2.164
					c0.255-0.698,0.454-1.391,0.622-2.068c0.18-0.673,0.354-1.323,0.522-1.95c0.129-0.633,0.254-1.242,0.372-1.825
					c0.265-1.159,0.399-2.225,0.541-3.159c0.156-0.932,0.249-1.74,0.307-2.403c0.07-0.613,0.127-1.117,0.173-1.524
					C573.599,201.935,573.631,201.752,573.649,201.753z"/>
			</g>
			<g>
				<path style="fill:#455A64;" d="M589.377,218.322c0.035,0.003,0.034,0.398-0.004,1.11c-0.039,0.712-0.116,1.741-0.255,3.009
					c-0.284,2.527-0.795,6.056-2.156,9.738c-1.361,3.686-3.459,6.659-5.331,8.418c-0.929,0.889-1.765,1.513-2.373,1.893
					c-0.606,0.382-0.965,0.552-0.981,0.525c-0.058-0.085,1.335-0.864,3.093-2.679c1.769-1.791,3.767-4.722,5.103-8.339
					c1.338-3.617,1.903-7.098,2.279-9.603c0.164-1.171,0.304-2.166,0.418-2.982C589.272,218.707,589.341,218.318,589.377,218.322z"
					/>
			</g>
		</g>
		<g>
			<path style="fill:#FF9A6C;" d="M474.027,169.065c-0.003,0.035-0.359,0.038-0.998-0.009c-0.639-0.047-1.562-0.147-2.692-0.336
				c-1.135-0.196-2.461-0.451-3.941-0.886c-0.725-0.235-1.584-0.697-1.905-1.626c-0.159-0.46-0.072-1,0.171-1.412
				c0.244-0.416,0.608-0.749,1.036-0.969c0.857-0.435,1.771-0.458,2.582-0.505c0.823-0.043,1.619-0.068,2.378-0.07
				c1.518-0.004,2.889,0.09,4.027,0.262c1.139,0.169,2.044,0.405,2.653,0.609c0.611,0.201,0.93,0.363,0.92,0.39
				c-0.028,0.087-1.364-0.397-3.619-0.634c-1.125-0.123-2.475-0.178-3.975-0.148c-0.75,0.015-1.538,0.05-2.354,0.1
				c-0.814,0.05-1.659,0.092-2.371,0.458c-0.693,0.346-1.187,1.11-0.96,1.764c0.22,0.675,0.901,1.102,1.575,1.327
				c1.408,0.44,2.748,0.741,3.854,0.978C472.631,168.822,474.035,168.984,474.027,169.065z"/>
		</g>
		<g>
			<path style="fill:#FF9A6C;" d="M507.945,256.363c-0.034,0.013-0.266-0.485-0.658-1.397c-0.393-0.912-0.939-2.241-1.59-3.893
				c-1.302-3.303-3.013-7.906-4.634-13.081c-1.617-5.178-2.792-9.954-3.474-13.443c-0.343-1.744-0.587-3.161-0.719-4.146
				c-0.138-0.984-0.197-1.531-0.162-1.536c0.035-0.006,0.162,0.53,0.361,1.501c0.193,0.973,0.491,2.376,0.88,4.105
				c0.772,3.459,1.998,8.201,3.611,13.364c1.616,5.16,3.269,9.773,4.482,13.106c0.581,1.6,1.063,2.929,1.434,3.95
				C507.81,255.826,507.979,256.349,507.945,256.363z"/>
		</g>
		<g>
			<path style="fill:#FF9A6C;" d="M484.758,251.717c-0.036,0.002-0.091-0.378-0.161-1.067c-0.074-0.803-0.163-1.775-0.268-2.916
				c-0.229-2.59-0.524-5.93-0.85-9.623c-0.324-3.761-0.577-7.171-0.698-9.643c-0.062-1.236-0.097-2.237-0.103-2.93
				c-0.007-0.693,0.006-1.076,0.042-1.078c0.036-0.002,0.091,0.378,0.161,1.067c0.074,0.802,0.163,1.775,0.268,2.916
				c0.229,2.59,0.524,5.93,0.85,9.624c0.324,3.759,0.577,7.169,0.698,9.641c0.062,1.236,0.097,2.237,0.103,2.93
				C484.807,251.331,484.794,251.715,484.758,251.717z"/>
		</g>
		<g>
			<g>
				<path style="fill:#FFFFFF;" d="M535.195,355.832c0.026,0.025-0.166,0.266-0.537,0.685c-0.365,0.424-0.944,0.992-1.698,1.65
					c-1.504,1.319-3.81,2.912-6.634,4.114c-2.829,1.193-5.578,1.74-7.572,1.902c-0.997,0.084-1.808,0.104-2.367,0.072
					c-0.559-0.024-0.866-0.055-0.865-0.091c0-0.091,1.233-0.089,3.191-0.347c1.956-0.253,4.635-0.847,7.41-2.016
					c2.769-1.178,5.059-2.689,6.603-3.918C534.273,356.656,535.13,355.77,535.195,355.832z"/>
			</g>
			<g>
				<path style="fill:#FFFFFF;" d="M510.105,292.252c0.056,0.01-0.001,0.692-0.5,1.659c-0.485,0.957-1.497,2.177-3.025,2.894
					c-1.53,0.714-3.115,0.708-4.161,0.467c-1.062-0.237-1.622-0.63-1.594-0.679c0.034-0.079,0.637,0.184,1.656,0.316
					c1.008,0.138,2.47,0.08,3.877-0.576c1.405-0.659,2.386-1.745,2.927-2.607C509.838,292.859,510.023,292.227,510.105,292.252z"/>
			</g>
			<g>
				<path style="fill:#FFFFFF;" d="M570.302,204.222c0.036,0.004-0.002,0.489-0.1,1.365c-0.044,0.439-0.112,0.974-0.231,1.588
					c-0.114,0.615-0.219,1.322-0.416,2.086c-0.337,1.541-0.871,3.346-1.587,5.307c-0.743,1.95-1.684,4.049-2.857,6.156
					c-1.192,2.097-2.499,3.991-3.78,5.638c-1.305,1.63-2.571,3.023-3.713,4.111c-0.55,0.565-1.101,1.021-1.567,1.438
					c-0.464,0.421-0.885,0.757-1.237,1.022c-0.698,0.538-1.092,0.822-1.115,0.793c-0.022-0.028,0.33-0.365,0.984-0.949
					c0.331-0.288,0.731-0.644,1.172-1.082c0.445-0.435,0.973-0.906,1.502-1.483c1.1-1.112,2.324-2.517,3.595-4.145
					c1.247-1.646,2.527-3.526,3.705-5.598c1.16-2.082,2.102-4.151,2.862-6.071c0.733-1.931,1.298-3.707,1.678-5.224
					c0.219-0.752,0.347-1.448,0.488-2.054c0.146-0.605,0.242-1.132,0.317-1.564C570.161,204.694,570.266,204.218,570.302,204.222z"
					/>
			</g>
			<g>
				<path style="fill:#FFFFFF;" d="M577.232,238.489c0.037,0.048-0.789,0.786-2.278,1.779c-1.485,0.993-3.662,2.198-6.221,3.164
					c-2.563,0.96-4.994,1.487-6.766,1.718c-1.774,0.234-2.882,0.222-2.885,0.162c-0.006-0.083,1.088-0.202,2.826-0.526
					c1.739-0.322,4.117-0.896,6.641-1.842c2.521-0.951,4.689-2.085,6.209-2.988C576.281,239.054,577.182,238.422,577.232,238.489z"
					/>
			</g>
		</g>
	</g>
</g>
<g id="Character_1">
	<g>
		<g>
			<g>
				<path style="fill:#263238;" d="M191.893,210.647c-0.685-9.124-1.559-18.784-6.98-26.156c-3.299-4.487-8.131-7.871-10.521-12.902
					c-2.359-4.964-3.345-10.961-5.028-16.193c-3.524-10.958-16.532-16.793-20.535-16.184l-29.806,37.762
					c1.474,8.202,2.953,16.527,2.176,24.825c-0.57,6.092-2.354,12.133-1.78,18.225c0.675,7.176,4.595,14.009,3.797,21.172
					c-0.753,6.754-5.631,12.674-5.654,19.47c-0.017,5.023,2.658,9.961,1.659,14.884c-0.433,2.135-1.486,4.562-0.175,6.301
					c1.009,1.339,2.924,1.501,4.601,1.529c9.272,0.15,18.554-0.296,27.769-1.333c0.136-2.824,0.272-5.649,0.409-8.473
					c0.053,3.819,3.459,7.152,7.222,8.216c4.048,1.143,8.359,0.326,12.483-0.497c8.429-1.681,16.858-3.363,25.287-5.044
					C195.176,254.382,193.535,232.514,191.893,210.647z"/>
				<g>
					<g>
						<g>
							<g>
								<path style="fill:#263238;" d="M160.239,144.436c-7.19-5.41-15.575-7.485-24.349-5.491c-4.95,1.125-6.74,2.649-10.056,4.476
									c-3.316,1.827-6.054,4.515-7.436,8.04c-1.642,4.186-2.777,8.702-2.19,13.16c0.603,4.58,1.213,9.19,2.644,13.581
									c1.431,4.392,3.749,8.6,7.273,11.587l11.868-0.808c6.34-1.324,12.764-2.678,18.538-5.611
									c5.774-2.933,10.919-7.685,12.886-13.856C172.15,160.941,167.429,149.846,160.239,144.436z"/>
							</g>
							<g>
								<path style="fill:#AE7461;" d="M150.091,146.84l-16.653-2.318l-3.852,1.431c-8.913,2.215-12.658,13.559-10.948,20.799
									c1.9,8.043,4.536,17.788,7.259,23.393c5.476,11.27,15.873,9.775,15.873,9.775l2.669,9.947l-4.267,4.106l8.862,27.287
									l19.167-2.531l2.261-47.104l-5.224,2.41L155.1,149.933C154.486,147.758,152.31,146.415,150.091,146.84z"/>
							</g>
							<g>
								<path style="fill:#6F4439;" d="M143.061,182.993c-0.236-0.607-0.72-1.076-1.258-1.348c-1.076-0.544-2.393-0.3-3.184,0.589
									c-0.791,0.889-1.006,2.369-0.521,3.577l0,0c0.714,0.603,1.652,0.899,2.576,0.756c0.144-0.022,0.286-0.052,0.427-0.09
									c0.682-0.186,1.323-0.588,1.723-1.222C143.224,184.621,143.352,183.741,143.061,182.993z"/>
							</g>
							<g>
								<path style="fill:#263238;" d="M125.229,175.821c0.215,0.811,1.079,1.297,1.93,1.087c0.849-0.209,1.365-1.034,1.15-1.844
									c-0.215-0.81-1.08-1.297-1.928-1.089C125.529,174.184,125.014,175.011,125.229,175.821z"/>
							</g>
							<g>
								<path style="fill:#263238;" d="M122.339,170.1c0.248,0.141,1.14-1.06,2.776-1.552c1.626-0.515,3.081-0.038,3.198-0.292
									c0.06-0.115-0.24-0.414-0.878-0.636c-0.629-0.222-1.618-0.324-2.634-0.011c-1.016,0.315-1.759,0.95-2.134,1.483
									C122.281,169.629,122.219,170.039,122.339,170.1z"/>
							</g>
							<g>
								<path style="fill:#263238;" d="M136.162,180.485c-0.021-0.095-1.09,0.038-2.799,0.327c-0.43,0.083-0.85,0.12-1.007-0.143
									c-0.19-0.272-0.152-0.774-0.097-1.321c0.086-1.129,0.175-2.312,0.269-3.553c0.339-5.044,0.451-9.141,0.248-9.152
									c-0.204-0.012-0.644,4.067-0.984,9.111c-0.073,1.241-0.145,2.424-0.211,3.555c-0.014,0.522-0.122,1.143,0.281,1.704
									c0.207,0.278,0.582,0.411,0.872,0.402c0.292,0,0.528-0.067,0.738-0.117C135.154,180.884,136.184,180.579,136.162,180.485z"
									/>
							</g>
							<g>
								<path style="fill:#6F4439;" d="M141.747,199.911c0,0,8.122-1.905,14.573-9.046c0,0-1.732,9.49-13.919,11.981
									L141.747,199.911z"/>
							</g>
							<g>
								<path style="fill:#263238;" d="M141.314,180.155c-0.27,0.065,0.265,1.84-0.871,3.56c-1.131,1.723-3.083,2.098-3.021,2.35
									c0.009,0.119,0.526,0.217,1.33-0.004c0.791-0.211,1.858-0.81,2.553-1.862c0.692-1.053,0.777-2.204,0.617-2.95
									C141.764,180.487,141.433,180.108,141.314,180.155z"/>
							</g>
							<g>
								<path style="fill:#263238;" d="M121.483,164.161c0.396,0.316,1.566-0.331,3.065-0.654c1.488-0.37,2.827-0.305,3.039-0.762
									c0.09-0.219-0.188-0.559-0.817-0.807c-0.62-0.248-1.596-0.356-2.623-0.118c-1.026,0.239-1.851,0.764-2.295,1.259
									C121.4,163.577,121.305,164.003,121.483,164.161z"/>
							</g>
							<g>
								<path style="fill:#263238;" d="M143.065,170.588c0.242,0.803-0.238,1.67-1.072,1.938c-0.832,0.268-1.704-0.164-1.946-0.967
									c-0.242-0.803,0.238-1.671,1.07-1.938C141.95,169.352,142.823,169.786,143.065,170.588z"/>
							</g>
							<g>
								<path style="fill:#263238;" d="M144.598,163.973c-0.138,0.25-1.527-0.304-3.177,0.135c-1.655,0.415-2.643,1.584-2.876,1.429
									c-0.111-0.066-0.012-0.479,0.414-1.002c0.419-0.519,1.207-1.125,2.237-1.391c1.03-0.265,1.996-0.114,2.595,0.142
									C144.4,163.542,144.668,163.858,144.598,163.973z"/>
							</g>
							<g>
								<path style="fill:#263238;" d="M142.303,158.91c-0.227,0.46-1.604,0.407-3.14,0.792c-1.549,0.337-2.763,0.997-3.165,0.683
									c-0.181-0.156-0.076-0.586,0.398-1.09c0.466-0.501,1.324-1.036,2.384-1.285c1.061-0.247,2.062-0.148,2.696,0.096
									C142.119,158.349,142.398,158.689,142.303,158.91z"/>
							</g>
							<g>
								<path style="fill:#AE7461;" d="M157.974,170.607c-0.266-0.882,0.122-3.271,0.952-3.671c2.215-1.069,6.464-2.155,8.296,3.739
									c2.505,8.057-6.101,8.91-6.187,8.684C160.968,179.18,158.892,173.654,157.974,170.607z"/>
							</g>
							<g>
								<path style="fill:#6F4439;" d="M162.343,175.723c0.027-0.037,0.171,0.055,0.442,0.09c0.265,0.034,0.685-0.017,1.056-0.305
									c0.754-0.577,1.05-2.151,0.638-3.615c-0.207-0.74-0.578-1.39-1.017-1.888c-0.429-0.513-0.939-0.806-1.391-0.749
									c-0.457,0.034-0.68,0.385-0.709,0.642c-0.038,0.259,0.063,0.404,0.025,0.431c-0.016,0.027-0.215-0.081-0.253-0.434
									c-0.017-0.171,0.019-0.39,0.16-0.604c0.144-0.217,0.404-0.386,0.712-0.446c0.635-0.15,1.371,0.248,1.854,0.794
									c0.518,0.538,0.952,1.264,1.185,2.095c0.453,1.64,0.095,3.417-0.966,4.116c-0.521,0.324-1.047,0.3-1.35,0.186
									C162.418,175.914,162.32,175.747,162.343,175.723z"/>
							</g>
							<g>
								<path style="fill:#263238;" d="M159.266,166.877l-1.551,2.665c-11.077-6.394-33.882-23.612-32.589-22.57
									c0,0,5.53-4.034,12.481-4.53c6.952-0.496,20.428-0.254,22.16,7.665C161.499,158.025,159.266,166.877,159.266,166.877z"/>
							</g>
						</g>
					</g>
				</g>
			</g>
			<path style="fill:#AE7461;" d="M173.777,188.743c1.472-6.175,5.26-11.622,10.713-14.872c0.314-0.187,0.636-0.371,0.968-0.552
				c7.973-4.349,23.919-6.161,28.63-12.684c4.711-6.523,11.234-11.959,20.295-19.932c9.06-7.973,29.717-20.75,29.717-20.75
				l9.982,12.031c0,0-31.001,26.114-38.974,32.637c-7.973,6.523-17.758,18.12-22.831,22.469
				c-5.074,4.349-14.496,5.074-11.597,19.207l-3.624,11.959l-9.423-5.798l-10.147-6.161l-5.215-11.234L173.777,188.743z"/>
			<g>
				<rect x="268.837" y="7.962" style="fill:#E0E0E0;" width="10.373" height="476.671"/>
				<g>
					<path style="fill:#263238;" d="M279.21,484.633c-0.001-2.839-0.116-212.414-0.26-476.671l0.26,0.26c-3.268,0-6.804,0-10.35,0
						h-0.023l0.26-0.26c-0.102,234.814-0.187,430.736-0.207,476.671l-0.053-0.053C275.627,484.615,278.848,484.631,279.21,484.633
						c-0.362,0.002-3.583,0.018-10.373,0.053l-0.053,0l0-0.054c-0.02-45.935-0.105-241.857-0.207-476.671l0-0.261h0.261h0.023
						c3.545,0,7.081,0,10.35,0h0.26l0,0.26C279.326,272.219,279.211,481.796,279.21,484.633z"/>
				</g>
			</g>
			<path style="fill:#AE7461;" d="M200.68,206.939c0,1.45,3.624,18.482,9.06,23.556c5.436,5.074,11.234,5.798,14.858,4.349
				c3.624-1.45,9.785-5.074,9.785-5.074s12.322,26.093,11.959,31.529c-0.362,5.436-5.798,16.308-5.798,16.308l-11.62,7.61
				c0,0-51.8-8.698-61.585-25.006l2.899-16.308l13.771-14.134L200.68,206.939z"/>
			<path style="fill:#FF725E;" d="M142.45,211.779l-4.103,3.133c0,0,1.087,23.194,5.074,32.979
				c3.986,9.785,10.147,14.859,23.919,12.322v0c7.671-10.788,17.183-20.139,28.1-27.625l10.756-7.375l-5.151-16.027
				c0,0-18.122,1.74-21.746-6.233c-3.624-7.973-7.027-12.684-7.027-12.684l-4.932,2.537c0,0,1.087,36.602-9.422,43.126
				C147.407,242.455,142.45,211.779,142.45,211.779z"/>
			<path style="fill:#AE7461;" d="M263.342,122.026l0.758-4.55c0,0,0.151-4.465,2.768-8.468c2.617-4.003,9.854-8.93,11.547-10.623
				c0,0,2.125,0.776,0,5.235c-0.891,1.87-2.617,4.619-3.079,4.927s2.411,5.709-1.9,12.021s-4.599,6.38-4.599,6.38L263.342,122.026z"
				/>
			<path style="fill:#AE7461;" d="M284.547,118.244c-0.13-0.746-0.589-1.482-1.306-1.725c0.676-0.666,0.978-1.689,0.772-2.615
				c-0.206-0.926-0.914-1.725-1.808-2.041c0.793-0.971,0.842-2.478,0.112-3.497c-0.73-1.02-2.172-1.46-3.347-1.022l0.414,3.004
				c-1.348,0.297-2.517,1.311-3.001,2.604c-0.485,1.293-0.271,2.825,0.549,3.935c-1.383,1.338-1.11,3.962,0.517,4.987
				c-0.211,1.143,0.289,2.387,1.232,3.068c0.943,0.68,2.281,0.762,3.299,0.202c1.584-0.871,2.083-2.87,2.418-4.646
				C284.538,119.754,284.678,118.99,284.547,118.244z"/>
			<g>
				<path style="fill:#AE7461;" d="M262.005,221.769c0,0,60.911-5.251,64.85-7.614c3.938-2.363,22.317-19.68,40.958-23.886
					c18.641-4.206,43.846-5.519,43.846-5.519l4.463,13.39c0,0-44.633,16.803-60.911,29.931
					c-16.278,13.128-73.514,34.656-81.128,33.869c-7.614-0.788-19.429-17.328-18.904-18.116
					C255.703,243.036,262.005,221.769,262.005,221.769z"/>
				<path style="fill:#AE7461;" d="M411.197,186.043c0.322-1.797,1.35-4.92,2.107-6.581c0.757-1.661,2-3.175,3.686-3.874
					c2.831-1.173,6.002,0.166,9.047,0.507c6.493,0.727,12.499-3.146,18.787-4.92c2.879-0.812,6.272-1.086,8.585,0.812
					c2.324,1.907,2.928,4.855,1.782,7.634c-1.146,2.779-3.024,4.892-5.813,6.014c-11.276,4.537-22.469,7.918-34.672,13.308"/>
			</g>
			<g>
				<path style="fill:#AE7461;" d="M234.383,291.082c0,0,12.662,36.633,25.546,53.239c12.884,16.606,24.809,4.657,30.249-0.783
					c5.44-5.44,45.463-53.453,45.463-53.453l-12.598-9.735c0,0-39.064,23.6-39.923,30.758c0,0-10.594-22.619-10.88-30.635
					c-0.286-8.017-0.859-12.598-0.859-12.598l-12.598,1.432L234.383,291.082z"/>
				<path style="fill:#AE7461;" d="M364.746,270.117c-0.785-2.039-5.232-3.31-9.822-2.07c-2.109,0.57-4.21,1.093-6.203,1.989
					c-1.993,0.895-4.118,1.737-6.294,1.543c-2.833-0.253-5.179-2.186-7.65-3.595c-2.471-1.409-5.788-2.258-8.008-0.479
					c-2.059,1.65-2.141,4.678-2.307,7.311c-0.166,2.633-0.547,6.091-4.267,7.771l11.249,11.979
					c4.958-6.695,13.251-12.245,27.045-16.006c1.867-0.509,3.528-1.711,4.854-3.121
					C364.667,274.027,365.442,271.922,364.746,270.117z"/>
			</g>
			<path style="fill:#263238;" d="M234.383,229.771c0,0,2.316-3.039,11.967-6.416c4.143-1.45,15.655-2.374,15.655-1.586
				c0,0.788,0,33.869,12.077,40.17l-2.393,6.728l-37.306,22.415l-5.46-5.864c0,0,7.351-8.576,9.452-20.128
				C240.476,253.538,234.383,229.771,234.383,229.771z"/>
			<g>
				<path style="fill:#AE7461;" d="M138.347,214.912c0,0-5.145,2.604-9.355,6.569s-21.613,21.184-28.757,23.016
					c-7.144,1.832-31.126,14.963-42.783,23.379c-10.535,7.607-14.929,10.712-14.929,10.712l3.917,7.975
					c0,0,52.842-18.035,60.536-23.044c7.694-5.009,34.629-21.722,34.629-21.722L138.347,214.912z"/>
				<g>
					<g>
						<g>
							<path style="fill:#AE7461;" d="M47.696,285.789c0,0-4.102,2.649-7.847,4.141s-9.399-0.427-13.224,0.58
								c-3.825,1.008-11.817,4.558-13.668,4.17c-1.851-0.388-1.966-2.218-1.966-2.218l1.705-1.025l-0.232-0.62l13.246-6.54
								c0,0,2.641-1.072,5.968-2.252c1.023-0.363,4.513-0.893,7.545-2.083c3.526-1.384,6.573-3.424,6.573-3.424L47.696,285.789z"/>
						</g>
						<g>
							<path style="fill:#AE7461;" d="M24.619,292.138c-0.257-0.908,4.537-4.568,5.315-4.976l5.562,1.337
								c-2.713,0.978-4.71,3.269-7.194,4.717c-0.501,0.292-1.046,0.555-1.638,0.549C25.768,293.756,24.876,293.047,24.619,292.138z"
								/>
						</g>
					</g>
					<g>
						<g>
							<g>
								<path style="fill:#6F4439;" d="M20.617,292.615c0.013,0.033-0.254,0.18-0.758,0.406c-0.505,0.217-1.25,0.539-2.25,0.7
									c-0.983,0.14-2.295,0.121-3.459-0.731c-0.263-0.225-0.575-0.569-0.522-1.07c0.076-0.516,0.546-0.754,0.866-0.884
									c0.662-0.258,1.342-0.524,2.041-0.797c2.794-1.082,5.334-2.034,7.182-2.699s3.003-1.043,3.029-0.976
									c0.026,0.067-1.083,0.566-2.896,1.319c-1.814,0.753-4.333,1.759-7.127,2.841c-0.696,0.268-1.376,0.529-2.036,0.783
									c-0.311,0.12-0.548,0.285-0.567,0.483c-0.038,0.198,0.125,0.451,0.34,0.633c0.947,0.729,2.179,0.83,3.102,0.732
									c0.95-0.105,1.703-0.366,2.225-0.524C20.309,292.665,20.603,292.58,20.617,292.615z"/>
							</g>
						</g>
					</g>
					<g>
						<path style="fill:#6F4439;" d="M43.974,287.754c0.011,0.014-0.078,0.103-0.26,0.261c-0.182,0.157-0.46,0.377-0.841,0.629
							c-0.755,0.51-1.935,1.152-3.519,1.601c-0.79,0.224-1.682,0.387-2.649,0.447c-0.474,0.029-0.997,0.047-1.516-0.036
							c-0.514-0.069-1.022-0.179-1.532-0.212c-0.512-0.034-1.005,0.024-1.431,0.313c-0.442,0.279-0.857,0.668-1.293,1.057
							c-0.431,0.404-0.944,0.771-1.462,1.085c-0.525,0.324-1.116,0.598-1.747,0.751c-0.623,0.146-1.279,0.234-1.936,0.075
							c-0.322-0.082-0.659-0.23-0.901-0.514c-0.242-0.277-0.357-0.658-0.314-1.012c0.101-0.715,0.558-1.183,0.966-1.585
							c0.423-0.371,0.837-0.735,1.243-1.091c1.607-1.416,3.093-2.681,4.549-3.477c1.458-0.744,2.674-1.228,3.515-1.573
							c0.842-0.337,1.318-0.5,1.331-0.467c0.015,0.034-0.434,0.26-1.25,0.653c-0.811,0.399-2.012,0.939-3.42,1.71
							c-1.372,0.801-2.823,2.08-4.407,3.513c-0.398,0.356-0.804,0.721-1.219,1.093c-0.379,0.366-0.75,0.812-0.801,1.277
							c-0.056,0.467,0.303,0.863,0.832,0.971c0.521,0.128,1.115,0.058,1.688-0.078c1.127-0.285,2.158-0.972,2.995-1.711
							c0.436-0.382,0.861-0.782,1.371-1.099c0.516-0.346,1.179-0.419,1.724-0.368c0.56,0.044,1.074,0.164,1.565,0.237
							c0.485,0.086,0.953,0.076,1.429,0.058c0.936-0.039,1.803-0.176,2.577-0.371C42.379,289.078,43.919,287.643,43.974,287.754z"/>
					</g>
				</g>
			</g>
		</g>
		<g>
			<g>
				<path style="fill:#F5F5F5;" d="M257.33,333.833c-0.031,0.019-0.355-0.45-0.916-1.315c-0.564-0.862-1.345-2.133-2.278-3.721
					c-1.869-3.176-4.296-7.659-6.661-12.763c-2.36-5.109-4.206-9.861-5.417-13.341c-0.607-1.74-1.07-3.157-1.362-4.145
					c-0.296-0.987-0.443-1.537-0.409-1.549c0.034-0.011,0.247,0.518,0.601,1.484c0.39,1.05,0.9,2.425,1.515,4.084
					c1.297,3.441,3.19,8.156,5.543,13.249c2.357,5.089,4.725,9.584,6.508,12.8c0.866,1.543,1.583,2.822,2.132,3.799
					C257.094,333.309,257.36,333.814,257.33,333.833z"/>
			</g>
			<g>
				<path style="fill:#F5F5F5;" d="M308.643,250.19c0.026,0.067-1.23,0.593-3.281,1.389c-2.051,0.796-4.897,1.862-8.052,3.01
					c-3.156,1.148-6.022,2.16-8.105,2.867c-2.083,0.707-3.383,1.111-3.406,1.043c-0.023-0.068,1.234-0.595,3.284-1.391
					c2.051-0.796,4.896-1.862,8.049-3.009c3.152-1.147,6.017-2.158,8.1-2.865C307.315,250.527,308.617,250.123,308.643,250.19z"/>
			</g>
			<g>
				<path style="fill:#F5F5F5;" d="M193.995,273.621c-0.006,0.036-0.37,0.005-1.026-0.081c-0.657-0.079-1.6-0.255-2.752-0.527
					c-2.305-0.539-5.437-1.579-8.648-3.26c-3.208-1.689-5.843-3.677-7.596-5.267c-0.879-0.794-1.559-1.47-1.997-1.966
					c-0.444-0.491-0.676-0.773-0.65-0.798c0.064-0.062,1.085,0.982,2.888,2.485c1.799,1.505,4.431,3.417,7.597,5.085
					c3.17,1.659,6.239,2.739,8.499,3.364C192.571,273.286,194.01,273.533,193.995,273.621z"/>
			</g>
			<g>
				<path style="fill:#F5F5F5;" d="M152.405,254.765c-0.032,0.121-2.655-1.266-4.562-4.263c-1.94-2.977-2.118-5.938-1.994-5.917
					c0.163-0.041,0.563,2.777,2.432,5.635C150.109,253.103,152.51,254.634,152.405,254.765z"/>
			</g>
			<g>
				<path style="fill:#F5F5F5;" d="M143.219,197.771c0.06,0.13-2.662,0.944-6.037,0.444c-1.674-0.226-3.147-0.648-4.179-1.027
					c-1.034-0.379-1.637-0.699-1.613-0.761c0.057-0.158,2.587,0.831,5.861,1.272C140.53,198.186,143.192,197.625,143.219,197.771z"
					/>
			</g>
			<g>
				<path style="fill:#F5F5F5;" d="M110.055,259.282c0.018,0.031-0.303,0.25-0.9,0.618c-0.596,0.37-1.472,0.881-2.566,1.493
					c-2.187,1.224-5.262,2.823-8.736,4.425c-3.477,1.6-6.691,2.896-9.043,3.763c-1.176,0.434-2.133,0.767-2.802,0.979
					c-0.668,0.214-1.043,0.315-1.055,0.282c-0.012-0.034,0.339-0.2,0.984-0.472c0.752-0.311,1.665-0.689,2.738-1.132
					c2.312-0.953,5.493-2.298,8.959-3.893c3.463-1.596,6.553-3.139,8.781-4.277c1.035-0.527,1.915-0.976,2.64-1.345
					C109.683,259.41,110.038,259.251,110.055,259.282z"/>
			</g>
		</g>
	</g>
</g>
</svg>
