<svg width="248" height="235" viewBox="0 0 248 235" fill="none" xmlns="http://www.w3.org/2000/svg">
<g clip-path="url(#clip0_1_483)">
<path d="M246.95 161.674C240.468 158.725 239.485 151.69 236.782 148.035C234.109 144.348 227.627 142.106 227.627 142.106C227.627 142.106 233.833 137.314 243.693 138.42C248.363 138.973 251.834 141.061 254.691 143.304C253.216 139.065 254.691 136.607 252.172 132.583C249.192 127.852 243.417 125.303 240.192 117.469C236.935 109.636 240.192 102.601 240.192 102.601C240.192 102.601 241.175 105.427 245.107 108.254C248.639 110.773 258.592 111.141 264.49 118.759C261.449 75.8451 231.59 52.3758 210.947 40.1189C193.222 29.6131 181.764 7.67972 133.842 10.8438C85.9209 14.0385 75.2307 44.7882 63.3732 68.0425C56.7994 80.9444 41.9314 83.8013 29.398 92.6484C38.6752 90.2216 44.5732 94.7065 51.5464 96.1196C59.9327 97.8091 61.2536 91.9111 68.7797 91.9418C76.2752 91.9725 79.1013 94.6144 79.1013 94.6144C79.1013 94.6144 71.5752 93.4778 69.1484 99.8673C66.6909 106.257 63.6804 108.684 56.1543 107.67C48.6281 106.656 46.4778 107.209 42.4843 110.773C38.4909 114.367 29.2752 111.725 23.9915 113.046C20.8889 113.814 16.6497 119.343 13.7007 123.736C16.066 121.801 19.3222 119.681 23.715 117.746C35.9412 112.278 51.5464 122.261 51.5464 122.261C51.5464 122.261 39.2281 125.088 32.1013 129.972C24.9438 134.856 19.8752 130.156 14.9909 131.846C12.5333 132.706 10.5673 133.566 9.18498 134.211C9.18498 134.232 9.18498 134.242 9.18498 134.242C8.20197 149.448 13.9464 162.964 23.715 174.545C47.6144 202.868 95.5667 219.641 127.883 221.668C161.643 223.757 220.931 211.193 249.069 173.808C251.558 170.521 253.8 166.988 255.766 163.302C252.94 163.271 249.714 162.903 246.95 161.674Z" fill="#C5C884"/>
<path d="M124.934 73.4183C124.934 83.1869 117.009 91.1431 107.209 91.1431C97.4099 91.1431 89.4844 83.1869 89.4844 73.4183C89.4844 63.619 97.4099 55.6628 107.209 55.6628C117.009 55.6628 124.934 63.619 124.934 73.4183Z" fill="#8DAD78"/>
<path d="M235.83 55.6627C235.83 59.2261 232.942 62.1137 229.409 62.1137C225.846 62.1137 222.958 59.2261 222.958 55.6627C222.958 52.13 225.846 49.2425 229.409 49.2425C232.942 49.2425 235.83 52.13 235.83 55.6627Z" fill="#8DAD78"/>
<path d="M249.069 173.808C220.931 211.193 161.643 223.757 127.883 221.668C95.5667 219.641 47.6144 202.868 23.7151 174.545C32.8079 164.439 56.0929 144.01 99.038 138.266C156.79 130.525 197.031 176.388 240.652 173.961C243.601 173.777 246.397 173.746 249.069 173.808Z" fill="#8DAD78"/>
<path d="M61.8987 54.649C67.2745 38.583 54.5568 45.9863 49.7647 56.2464C44.9725 66.5065 35.9412 67.6124 35.9412 73.4183C35.9412 79.1935 56.5536 70.715 61.8987 54.649Z" stroke="#8DAD78" stroke-width="0.614379"/>
<path d="M208.858 34.4667C208.858 34.4667 193.929 21.7797 187.846 17.6941C181.795 13.6085 184.467 8.10981 198.352 14.4379C212.268 20.7967 218.166 33.0536 216.354 35.6033C214.511 38.1529 208.858 34.4667 208.858 34.4667Z" stroke="#8DAD78" stroke-width="0.614379"/>
<path d="M70.1316 72.4353C70.1316 72.9883 69.7015 73.4183 69.1793 73.4183C68.6264 73.4183 68.1963 72.9883 68.1963 72.4353C68.1963 71.9131 68.6264 71.483 69.1793 71.483C69.7015 71.483 70.1316 71.9131 70.1316 72.4353Z" fill="#8DAD78"/>
<path d="M78.2104 74.2784C78.2104 74.8007 77.7804 75.2307 77.2582 75.2307C76.7052 75.2307 76.2751 74.8007 76.2751 74.2784C76.2751 73.7255 76.7052 73.2954 77.2582 73.2954C77.7804 73.2954 78.2104 73.7255 78.2104 74.2784Z" fill="#8DAD78"/>
<path d="M105.243 45.4948C105.243 46.017 104.813 46.4471 104.291 46.4471C103.738 46.4471 103.308 46.017 103.308 45.4948C103.308 44.9418 103.738 44.5118 104.291 44.5118C104.813 44.5118 105.243 44.9418 105.243 45.4948Z" fill="#8DAD78"/>
<path d="M231.314 130.893C231.314 131.446 230.884 131.876 230.361 131.876C229.839 131.876 229.409 131.446 229.409 130.893C229.409 130.371 229.839 129.941 230.361 129.941C230.884 129.941 231.314 130.371 231.314 130.893Z" fill="#8DAD78"/>
<path d="M234.601 128.282C234.601 128.835 234.17 129.265 233.648 129.265C233.095 129.265 232.665 128.835 232.665 128.282C232.665 127.76 233.095 127.33 233.648 127.33C234.17 127.33 234.601 127.76 234.601 128.282Z" fill="#8DAD78"/>
<path d="M76.2752 69.3327C76.2752 70.1621 75.5994 70.8687 74.7393 70.8687C73.8791 70.8687 73.1726 70.1621 73.1726 69.3327C73.1726 68.4726 73.8791 67.7661 74.7393 67.7661C75.5994 67.7661 76.2752 68.4726 76.2752 69.3327Z" fill="#8DAD78"/>
<path d="M239.946 79.8386C239.946 80.6987 239.239 81.3745 238.379 81.3745C237.55 81.3745 236.843 80.6987 236.843 79.8386C236.843 78.9784 237.55 78.2719 238.379 78.2719C239.239 78.2719 239.946 78.9784 239.946 79.8386Z" fill="#8DAD78"/>
<path d="M73.1727 126.47C73.1727 127.607 72.2818 128.497 71.1759 128.497C70.07 128.497 69.1792 127.607 69.1792 126.47C69.1792 125.364 70.07 124.473 71.1759 124.473C72.2818 124.473 73.1727 125.364 73.1727 126.47Z" stroke="white" stroke-width="0.614379"/>
<path d="M186.802 40.764C186.802 41.8699 185.911 42.7608 184.805 42.7608C183.699 42.7608 182.778 41.8699 182.778 40.764C182.778 39.6581 183.699 38.7366 184.805 38.7366C185.911 38.7366 186.802 39.6581 186.802 40.764Z" stroke="white" stroke-width="0.614379"/>
<path d="M92.5869 34.3131C92.5869 37.8765 89.6993 40.7333 86.1666 40.7333C82.6339 40.7333 79.7463 37.8765 79.7463 34.3131C79.7463 30.7804 82.6339 27.9235 86.1666 27.9235C89.6993 27.9235 92.5869 30.7804 92.5869 34.3131Z" stroke="white" stroke-width="0.614379"/>
<path d="M272.969 89.5765C272.969 96.8262 267.071 102.693 259.821 102.693C252.571 102.693 246.704 96.8262 246.704 89.5765C246.704 82.3268 252.571 76.4288 259.821 76.4288C267.071 76.4288 272.969 82.3268 272.969 89.5765Z" stroke="white" stroke-width="0.614379"/>
<path d="M26.6946 153.472C26.6946 160.722 20.8273 166.62 13.5776 166.62C6.32797 166.62 0.429932 160.722 0.429932 153.472C0.429932 146.222 6.32797 140.355 13.5776 140.355C20.8273 140.355 26.6946 146.222 26.6946 153.472Z" stroke="white" stroke-width="0.614379"/>
<path d="M113.138 19.8137C113.138 19.8137 110.373 21.2575 110.25 27.3091C110.097 33.3915 115.903 36.1869 119.558 36.1255L119.251 35.1732C119.251 35.1732 113.015 34.4974 111.387 29.2137C109.79 23.8993 113.322 20.3359 113.322 20.3359L113.138 19.8137Z" fill="#3D2624"/>
<path d="M213.927 125.548C213.927 125.548 212.637 135.133 195.864 138.788C179.061 142.444 161.735 132.86 161.735 132.86L164.561 132.583C164.561 132.583 174.361 138.266 186.095 137.56C197.861 136.853 204.527 129.726 204.527 129.726L213.927 125.548Z" fill="#3D2624"/>
<path fill-rule="evenodd" clip-rule="evenodd" d="M222.559 120.418C211.223 141.123 197.891 136.853 179.214 135.286C160.537 133.72 152.765 132.859 135.962 133.904C119.159 134.948 108.376 134.242 102.263 124.504C96.1809 114.766 98.4234 90.0373 111.387 79.5928C124.381 69.1484 126.193 50.5634 126.193 50.5634L165.145 28.1386C165.145 28.1386 163.732 48.9353 183.238 52.0686C202.745 55.202 219.087 67.3974 218.043 79.2242C218.043 79.2242 233.894 99.7137 222.559 120.418ZM217.183 78.2719C217.183 78.2719 216.937 64.602 193.069 57.1373C193.069 57.1373 199.151 60.4242 206.831 66.4451C214.48 72.4353 216.476 78.2719 216.476 78.2719H217.183Z" fill="#3D2624"/>
<path d="M112.769 68.6876C112.769 68.6876 107.24 73.664 103.308 84.1085C99.4065 94.5529 91.1431 126.931 91.1431 126.931L104.506 135.286L117.408 99.9595L112.769 68.6876Z" fill="#C56E5D"/>
<path d="M166.036 118.913C163.978 124.934 164.5 131.508 167.418 137.129L168.155 140.232L170.122 148.71C156.636 160.414 137.928 164.346 126.439 161.797C114.92 159.278 112.001 149.847 112.001 149.847L113.783 137.406L110.711 109.697C110.711 109.697 108.346 106.073 107.332 97.6863C106.318 89.3 112.769 68.6876 112.769 68.6876L133.72 60.3013L148.987 59.0111L174.484 68.6876L177.771 76.951C177.678 81.5281 174.299 93.2627 170.797 104.383C169.138 109.636 167.418 114.766 166.036 118.913Z" fill="#F7DBC6"/>
<path d="M149.141 60.3627C146.745 64.7248 138.205 70.1928 134.733 68.9947C131.293 67.7967 134.088 61.6529 134.088 61.6529C134.129 60.7723 134.16 59.9634 134.181 59.2261C134.334 54.3111 134.303 52.2222 134.303 52.2222L149.141 42.3921C148.803 44.2045 148.618 46.232 148.557 48.2902C148.373 54.2804 149.141 60.3627 149.141 60.3627Z" fill="#C56E5D"/>
<path d="M149.141 42.3921C148.803 44.2045 148.618 46.232 148.557 48.2902C146.867 50.8706 144.041 54.6797 141.092 56.7686C138.051 58.9496 135.563 59.2568 134.18 59.2261C134.334 54.3111 134.303 52.2222 134.303 52.2222L149.141 42.3921Z" fill="#AF5448"/>
<path d="M118.176 37.2006C118.176 37.2006 118.698 49.3346 127.238 54.8026C135.808 60.2706 147.758 48.8124 149.816 42.4843C151.874 36.1562 151.199 22.4863 151.199 22.4863C151.199 22.4863 139.894 14.9601 131.354 14.9601C122.814 14.9601 118.176 19.23 118.176 19.23C118.176 19.23 118.176 30.8725 118.176 37.2006Z" fill="#C56E5D"/>
<path d="M127.944 15.2059C127.944 15.2059 127.668 19.6602 135.901 24.8824C144.103 30.1046 148.557 31.149 148.557 31.149L150.277 40.7641C150.277 40.7641 149.079 43.7745 148.772 44.8497C148.403 46.0477 148.526 49.8569 148.526 49.8569C148.526 49.8569 155.469 48.8124 157.865 42.3922C157.865 42.3922 164.961 37.1085 165.206 27.5242C165.483 17.9399 160.506 14.9602 160.506 14.9602C160.506 14.9602 159.247 3.50199 146.591 1.53597C133.904 -0.430038 123.828 6.66604 123.828 6.66604C123.828 6.66604 117.654 5.80591 114.336 10.168C110.988 14.5301 113.138 19.8138 113.138 19.8138C113.138 19.8138 110.22 22.6399 111.94 27.2785C113.66 31.8863 118.176 32.5007 118.176 32.5007C118.176 32.5007 118.606 24.6059 120.91 20.6739C123.214 16.7419 127.944 15.2059 127.944 15.2059Z" fill="#3D2624"/>
<path d="M149.141 32.5621C149.141 32.5621 150.769 28.5379 154.117 28.1386C157.435 27.7085 157.68 33.6065 155.377 37.5386C153.073 41.4706 149.816 40.7026 149.816 40.7026L149.141 32.5621Z" fill="#C56E5D"/>
<path d="M147.512 28.1078C147.512 28.1078 149.755 34.8046 148.465 40.0882C148.465 40.0882 148.803 39.7503 149.294 39.0438C150.369 37.4771 150.799 31.5484 151.291 29.5209L147.512 28.1078Z" fill="#3D2624"/>
<path d="M123.644 7.24968C123.644 7.24968 126.439 3.19478 131.754 1.56668C137.068 -0.0921472 141.492 1.56668 141.492 1.56668L142.352 1.50524C142.352 1.50524 137.406 -0.89084 131.815 0.829421C126.224 2.51896 122.354 6.91177 122.354 6.91177L123.644 7.24968Z" fill="#3D2624"/>
<path d="M160.507 14.9601C160.507 14.9601 163.486 15.5131 165.237 18.7078C166.988 21.9026 165.176 25.1588 165.176 25.1588L164.869 24.7595C164.869 24.7595 166.282 21.9948 164.531 19.015C162.78 16.0046 160.507 16.1582 160.507 16.1582V14.9601Z" fill="#3D2624"/>
<path d="M119.251 30.4425C119.251 30.4425 119.62 29.6438 122.139 29.7052C124.658 29.736 126.193 31.149 126.193 31.149C126.193 31.149 125.026 28.9987 122.722 28.6915C120.418 28.3843 119.312 30.1046 119.251 30.4425Z" fill="#3D2624"/>
<path d="M127.944 15.2059C127.944 15.2059 127.545 19.568 130.095 23.1006C132.675 26.6333 140.232 26.6333 140.232 26.6333L140.539 27.3091C140.539 27.3091 133.075 27.3706 130.033 24.698C127.023 22.0255 126.685 17.5405 127.238 15.2059H127.944Z" fill="#3D2624"/>
<path d="M133.013 30.719C133.013 30.719 133.443 29.7974 136.362 29.8588C139.28 29.9203 141.031 31.5484 141.031 31.5484C141.031 31.5484 139.679 29.0294 137.037 28.6915C134.365 28.3229 133.075 30.3196 133.013 30.719Z" fill="#3D2624"/>
<path d="M126.194 42.2386C126.194 42.2386 126.562 42.6072 128.037 43.0373C129.481 43.4673 130.494 43.0373 130.494 43.0373C130.494 43.0373 130.064 42.2386 128.928 42.0543C127.822 41.9007 126.194 42.2386 126.194 42.2386Z" fill="#913D37"/>
<path d="M126.194 31.149C126.194 31.149 126.992 32.0091 127.299 34.2516C127.576 36.4634 127.299 38.2143 127.299 38.2143C127.299 38.2143 126.286 32.4085 126.194 31.149Z" fill="#AF5448"/>
<path d="M119.558 33.6372C119.558 33.6372 120.818 34.1902 122.384 34.3438C123.92 34.5281 125.855 34.0366 125.855 34.0366C125.855 34.0366 125.149 32.1013 123.49 31.6405C120.879 30.934 119.558 33.6372 119.558 33.6372Z" fill="#AF5448"/>
<path d="M133.013 33.9445C133.013 33.9445 133.29 31.9784 135.809 31.5484C138.328 31.1183 141.307 33.7601 141.307 33.7601C141.307 33.7601 136.362 36.1255 133.013 33.9445Z" fill="#AF5448"/>
<path d="M122.784 34.3131C121.094 34.2824 119.558 33.6373 119.558 33.6373L119.251 33.8523C119.036 34.0059 118.575 34.0673 118.575 34.0673C119.036 34.2516 119.497 34.2516 119.773 34.1902C120.357 34.5281 121.401 34.9889 122.722 35.0196C124.811 35.0503 125.856 34.3131 125.856 34.3131V34.0366C125.856 34.0366 124.473 34.3438 122.784 34.3131Z" fill="#3D2624"/>
<path d="M141.307 33.7601C141.307 33.7601 139.28 34.3745 137.191 34.4359C135.071 34.4974 133.136 33.883 133.136 33.883L132.737 34.1288C132.491 34.2824 131.907 34.3745 131.907 34.3745C132.491 34.5588 133.075 34.5281 133.412 34.4667C134.18 34.8046 135.471 35.2346 137.129 35.1732C139.741 35.081 140.539 34.4667 141.123 34.098C141.215 34.0366 141.307 33.7601 141.307 33.7601Z" fill="#3D2624"/>
<path d="M126.193 46.1092C126.193 46.1092 126.624 46.3242 128.344 46.6621C130.064 47 134.18 46.1092 134.18 46.1092C134.18 46.1092 131.139 45.587 130.187 45.6484C129.204 45.7098 128.559 46.2013 128.559 46.2013C128.559 46.2013 127.668 45.4948 127.146 45.4948C126.593 45.4948 125.579 45.802 125.579 45.802L126.193 46.1092Z" fill="#913D37"/>
<path d="M126.808 47.9523C126.808 47.9523 127.975 48.751 129.695 48.7817C131.385 48.8431 133.259 48.1366 133.259 48.1366C133.259 48.1366 132.214 49.6111 130.033 49.8569C127.822 50.0719 126.808 47.9523 126.808 47.9523Z" fill="#AF5448"/>
<path d="M105.796 157.404L113.168 141.645C113.168 141.645 118.053 146.775 133.013 147.297C147.973 147.82 168.155 140.263 168.155 140.263C168.155 140.263 173.316 153.595 173.316 158.541C173.316 163.517 143.795 183.085 143.795 183.085L126.285 181.795L105.796 157.404Z" fill="#743F3D"/>
<path d="M104.967 183.085C104.967 183.085 100.144 184.959 98.485 185.758C98.485 185.758 91.266 186.495 88.3477 187.324C85.4601 188.184 84.7229 192.086 84.0163 196.294C83.3098 200.472 77.9033 206.093 76.2137 209.042C74.5242 211.961 75.3229 215.432 75.5686 216.139C75.8144 216.876 74.8314 219.303 76.0601 220.839C77.2582 222.344 77.9647 221.576 78.6098 221.176C79.2856 220.808 79.5006 219.487 79.5006 219.487C79.5006 219.487 81.3745 219.118 82.081 218.565C82.7569 218.043 82.0503 218.012 83.7706 217.459C85.4908 216.907 86.3817 216.476 87.3647 215.77C88.317 215.063 93.7542 205.602 97.2255 202.561C100.697 199.55 106.963 198.506 106.963 198.506L104.967 183.085Z" fill="#C56E5D"/>
<path d="M199.612 200.073C187.816 203.052 162.196 205.141 139.249 206.493C115.595 207.875 94.7986 208.52 94.7986 208.52L91.2659 197.4L88.1633 187.539L156.912 173.9C156.912 173.9 155.039 159.677 169.999 151.997C169.999 151.997 214.572 152.366 225.354 164.899C236.167 177.433 224.494 193.806 199.612 200.073Z" fill="#743F3D"/>
<path d="M132.491 196.171C132.491 196.171 137.345 198.045 139.003 198.813C139.003 198.813 146.222 199.55 149.11 200.41C152.028 201.271 152.765 205.141 153.472 209.35C154.179 213.527 159.585 219.18 161.244 222.098C162.933 225.016 162.135 228.488 161.889 229.194C161.674 229.931 162.626 232.389 161.428 233.894C160.23 235.399 159.524 234.631 158.848 234.263C158.172 233.894 157.957 232.543 157.957 232.543C157.957 232.543 156.114 232.174 155.407 231.652C154.701 231.099 155.438 231.099 153.687 230.546C151.967 229.962 151.076 229.532 150.124 228.826C149.171 228.119 143.703 218.658 140.232 215.647C136.761 212.606 130.525 211.561 130.525 211.561L132.491 196.171Z" fill="#C56E5D"/>
<path d="M109.575 154.639C109.575 154.639 50.8399 154.639 41.4092 165.084C32.0092 175.528 37.2314 188.829 44.819 193.284C52.4066 197.707 131.784 215.463 131.784 215.463L135.962 191.195L124.258 187.539L130.525 179.122L109.575 154.639Z" fill="#743F3D"/>
<path d="M109.421 156.882C109.421 156.882 121.678 172.057 128.344 176.573C128.344 176.573 114.643 175.159 109.421 156.882Z" fill="#5E3030"/>
<path d="M62.0522 170.029C62.0522 170.029 72.2509 171.35 88.1634 174.729C104.106 178.139 124.258 187.539 124.258 187.539C124.258 187.539 103.584 173.439 87.3954 170.029C71.2065 166.65 62.0522 170.029 62.0522 170.029Z" fill="#5E3030"/>
<path d="M118.882 184.099C118.882 184.099 166.251 169.968 186.095 166.742C186.095 166.742 144.133 179.337 124.258 187.539L118.882 184.099Z" fill="#5E3030"/>
<path d="M164.561 155.653C164.561 155.653 141.584 166.988 133.843 178.477C133.843 178.477 158.08 166.067 164.561 155.653Z" fill="#5E3030"/>
<path fill-rule="evenodd" clip-rule="evenodd" d="M61.3765 159.585C61.3765 159.585 59.4412 162.657 55.7549 164.101C53.1131 165.114 50.7785 165.329 47.6451 166.743C44.5118 168.186 40.6412 171.658 39.8118 170.122C38.9824 168.616 43.6824 165.176 43.6824 165.176C43.6824 165.176 40.4262 166.865 38.583 167.756C36.7706 168.678 34.7739 169.968 34.9275 167.756C35.0811 165.575 40.887 162.38 40.887 162.38C40.887 162.38 35.0196 163.978 34.0981 164.408C33.1765 164.869 30.3811 165.176 31.4255 163.118C32.5007 161.06 38.2144 159.616 38.2144 159.616C36.5249 159.554 33.7294 157.957 33.7294 156.36C33.7294 154.762 36.3098 151.936 37.3236 150.431C37.9994 149.448 38.8288 148.864 39.3817 149.079C39.0438 148.557 39.0745 148.127 39.8732 148.28C41.5628 148.588 48.0138 148.526 51.3007 149.11C53.2053 149.478 54.434 149.97 55.1098 150.339L91.4504 125.702C100.605 125.794 104.506 135.286 104.506 135.286C95.6896 146.345 67.8889 157.158 61.3765 159.585ZM47.4301 152.305C46.5085 151.782 43.0066 151.414 41.4092 150.738C40.7948 150.461 40.2111 150.031 39.7811 149.571C39.8425 149.786 39.8732 150.031 39.8732 150.339C39.8732 152.397 36.9856 155.069 37.385 155.53C37.7536 155.96 40.7334 156.882 43.3138 155.96C45.8941 155.069 48.3209 152.858 47.4301 152.305Z" fill="#C56E5D"/>
<path d="M224.156 104.045C224.156 104.045 227.443 114.152 225.201 121.678C222.927 129.204 214.265 130.893 214.265 130.893L215.647 129.173C215.647 129.173 224.187 127.729 224.678 116.025C225.108 105.612 224.156 104.045 224.156 104.045Z" fill="#3D2624"/>
<path d="M47.8909 152.212C47.8909 152.212 50.7785 153.841 53.9732 153.841C57.168 153.841 53.3281 155.254 50.932 154.547C48.5667 153.841 47.8909 152.212 47.8909 152.212Z" fill="#AF5448"/>
<path d="M57.9975 157.895C57.9975 157.895 56.0315 157.957 53.2975 159.37C50.5328 160.814 49.1198 164.469 48.3825 163.886C47.676 163.302 49.642 157.68 57.9975 157.895Z" fill="#AF5448"/>
<path d="M39.0745 159.524C39.0745 159.524 45.0647 164.377 45.7712 164.439C46.5085 164.5 43.3137 159.8 39.0745 159.524Z" fill="#AF5448"/>
<path d="M112.892 107.455C112.892 107.455 115.841 105.888 124.872 105.888C133.904 105.888 148.925 109.421 148.925 109.421C148.925 109.421 121.217 109.575 112.892 107.455Z" fill="#EFC9B6"/>
<path d="M167.418 137.314L168.156 140.416L155.346 144.348C155.346 144.348 161.858 128.62 161.735 116.578C161.613 104.567 165.545 89.5765 165.545 89.5765L170.798 104.537C169.139 109.82 167.418 114.92 166.036 119.067C164.009 125.088 164.5 131.661 167.418 137.314Z" fill="#EFC9B6"/>
<path fill-rule="evenodd" clip-rule="evenodd" d="M230.669 175.467C229.87 174.822 224.402 172.18 224.402 172.18C224.402 172.18 229.501 176.388 229.225 178.6C228.979 180.781 227.259 179.153 225.631 177.893C224.033 176.665 221.115 174.422 221.115 174.422C221.115 174.422 225.109 178.661 224.003 180.013C222.897 181.334 219.733 177.218 216.937 175.221C214.142 173.255 211.869 172.61 209.473 171.105C206.093 169.016 204.527 166.282 204.527 166.282C201.486 162.81 179.706 144.225 175.559 132.583C175.559 132.583 163.916 91.6961 165.237 82.5418C166.558 73.4183 174.484 68.6876 174.484 68.6876C174.484 68.6876 180.873 72.0974 183.761 84.3849C185.942 93.7542 187.816 114.92 189.167 123.275L213.497 157.496C214.265 157.342 215.278 157.22 216.63 157.22C219.948 157.25 226.307 158.51 227.996 158.54C228.826 158.54 228.795 158.94 228.365 159.401C228.918 159.278 229.624 160.015 230.116 161.09C230.822 162.78 232.85 166.036 232.542 167.603C232.266 169.169 229.194 170.214 227.535 169.968C227.535 169.968 232.88 172.456 233.526 174.668C234.201 176.88 231.498 176.081 230.669 175.467ZM229.133 166.097C229.593 165.729 227.228 162.565 227.627 160.537C227.689 160.23 227.75 159.984 227.873 159.8C227.351 160.169 226.706 160.507 226.061 160.629C224.341 160.998 220.839 160.722 219.856 161.09C218.842 161.428 220.839 164.07 223.204 165.452C225.569 166.835 228.672 166.466 229.133 166.097Z" fill="#C56E5D"/>
<path d="M219.088 161.428C219.088 161.428 216.2 163.056 213.005 163.056C209.81 163.056 213.65 164.469 216.046 163.763C218.412 163.056 219.088 161.428 219.088 161.428Z" fill="#AF5448"/>
<path d="M206.923 165.698C206.923 165.698 208.889 165.79 211.623 167.203C214.357 168.647 215.801 172.303 216.507 171.719C217.244 171.135 215.278 165.514 206.923 165.698Z" fill="#AF5448"/>
<path d="M225.108 169.046C225.108 169.046 219.118 173.9 218.381 173.961C217.674 174.023 220.869 169.292 225.108 169.046Z" fill="#AF5448"/>
<path d="M131.569 64.1105C131.569 64.1105 128.712 69.517 133.259 71.0222C137.775 72.4967 145.546 67.3359 149.478 63.5268C149.478 63.5268 144.256 71.9131 135.809 73.2647C127.33 74.6163 129.296 65.9536 131.569 64.1105Z" fill="#EFC9B6"/>
</g>
<defs>
<clipPath id="clip0_1_483">
<rect width="273.399" height="235" fill="white"/>
</clipPath>
</defs>
</svg>
