<svg width="54" height="68" viewBox="0 0 54 68" fill="none" xmlns="http://www.w3.org/2000/svg">
<g clip-path="url(#clip0_1_380)">
<path d="M6.32195 54.5199C7.26328 54.4543 8.26705 54.3089 8.55235 54.1967C9.35654 53.8805 9.61339 53.9256 10.7913 54.5894C12.7204 55.6763 12.7256 56.3259 10.8259 58.8382C9.48828 60.6071 8.97519 61.8507 8.96647 63.3445C8.95569 65.1978 7.92017 66.0193 5.5769 66.0324C3.10705 66.0466 2.44188 64.8467 4.5065 64.1017C6.10887 63.5234 6.17775 63.399 5.67627 61.9924C5.34762 61.071 4.61025 56.1258 4.61025 54.8441C4.61025 54.7313 5.38062 54.5854 6.32195 54.5199Z" fill="#C08A64"/>
<path d="M11.9769 22.5076C8.69124 23.9177 9.68216 21.8773 14.5126 17.2867C16.923 14.996 16.6304 15.027 18.4564 16.8672C20.6649 19.0928 20.5869 19.299 17.0664 20.5359C15.5632 21.0641 13.2728 21.9514 11.9769 22.5076Z" fill="#C08A64"/>
<path fill-rule="evenodd" clip-rule="evenodd" d="M38.555 22.3459C37.1255 25.0902 36.4407 30.2707 37.3905 31.1536C38.036 31.7538 37.7307 31.9042 43.0345 28.3743C44.6525 27.2972 45.6168 26.8812 46.506 26.8761C49.0817 26.861 45.9349 24.068 42.2946 23.1379C41.6052 22.9616 40.7271 22.6903 40.3431 22.5346C38.9814 21.9832 38.7562 21.9594 38.555 22.3459Z" fill="#C08A64"/>
<path d="M53.425 37.4062C53.9157 34.128 53.2695 32.6473 49.6671 28.7947C46.9897 25.9317 46.2719 25.9485 42.0049 28.9761C41.084 29.6297 39.8746 30.4264 39.3175 30.7465C37.9719 31.5206 37.9612 31.612 39.0217 33.2708C40.0526 34.8834 40.955 37.6086 41.4235 40.5256C41.5891 41.5553 41.7738 42.6988 41.8344 43.0668C42.1691 45.1031 42.5282 44.1972 42.5282 41.3154C42.5282 37.5358 43.2473 36.8849 47.4218 36.8849C50.9903 36.8849 52.5694 37.5662 52.5825 39.1121C52.5939 40.4732 53.1276 39.3928 53.425 37.4062Z" fill="#FFC960"/>
<path d="M34.4762 14.4513C35.2354 6.02998 34.7244 1.68061 32.8296 0.439116C30.9507 -0.791881 27.821 0.675692 26.3783 3.46457C26.1483 3.9093 25.7372 4.49965 25.465 4.77646C24.4109 5.84807 22.4059 8.33346 20.9541 10.3682C20.1195 11.538 18.7884 13.1317 17.996 13.9099C16.2824 15.5931 16.2958 15.485 17.6238 16.8982C19.4856 18.8796 19.3665 18.9023 22.459 15.9788C23.7307 14.7766 25.8026 13.2603 26.1739 13.2603C26.5043 13.2603 26.4402 13.6062 26.0497 13.9304C25.5774 14.3225 24.7072 16.0846 24.009 18.0629L23.4279 19.7104L21.6861 19.8989C19.6146 20.1228 16.6532 21.0097 12.6198 22.6136C11.9997 22.86 8.42 24.52 7.59088 24.9455C-0.383492 29.0373 -0.894255 29.7952 0.771417 35.065C1.15996 36.2947 1.57145 38.0166 1.68581 38.8914C1.91605 40.6553 2.10168 41.5432 3.43522 47.2602C3.94009 49.4249 4.41762 51.9831 4.49611 52.9451L4.63911 54.6943L6.49763 54.674C7.51982 54.6628 8.60629 54.5502 8.91196 54.4234L9.46776 54.1932L9.42885 49.1961C9.36937 41.5775 8.77749 37.0209 7.59547 35.0821C6.61657 33.4763 8.66051 32.5156 13.8224 32.1555C15.025 32.0715 16.8944 31.7661 17.9767 31.4763C22.2496 30.333 21.5565 30.3322 23.8273 31.4842C27.1735 33.1818 29.9368 33.3563 31.5795 31.974C32.6208 31.0979 33.7512 30.7522 35.5745 30.7522H37.2668L37.4081 29.3856C37.5937 27.5914 38.3148 24.5679 38.8702 23.2569C39.4627 21.858 39.1276 21.5659 35.2975 20.1434C33.9114 19.6285 33.9718 20.0469 34.4762 14.4513Z" fill="#2B2B2B"/>
<path fill-rule="evenodd" clip-rule="evenodd" d="M45.3245 36.7856C42.3091 37.343 42.1073 37.6633 42.3043 41.5821C42.4411 44.3045 42.3618 44.5409 41.5753 43.7546C40.3434 42.523 38.4493 43.4662 38.2717 45.3995L38.1569 46.6498L36.5031 47.3083C34.0443 48.2872 33.4944 48.9368 32.969 51.4837C32.0535 55.9201 32.6815 57.7792 35.6077 59.2919C36.2055 59.601 36.5549 60.2876 36.1171 60.2928C36.026 60.2939 34.8498 60.4319 33.503 60.5994C30.364 60.9895 30.0693 60.9228 28.9378 59.5674C27.6287 57.999 27.0425 57.4578 25.9698 56.8286C24.2897 55.8429 23.8216 56.6504 25.1934 58.168C26.3781 59.479 25.6963 59.4913 23.1842 58.2036C20.1023 56.6239 19.1698 57.5766 22.0836 59.3282C22.7413 59.7233 22.3155 59.8859 21.2601 59.6426C19.7565 59.2958 19.0807 59.3441 19.0807 59.7978C19.0807 60.1691 20.4701 60.9523 21.1282 60.9523C21.4927 60.9523 22.3888 61.5811 22.3888 61.8372C22.3888 61.9463 21.6694 62.0648 20.7899 62.1002C18.6794 62.1857 18.3695 62.9466 20.3468 63.1882C22.1273 63.4053 22.9192 64.0392 21.4102 64.0392C21.1291 64.0392 20.7813 64.1811 20.6373 64.3545C20.1631 64.9258 21.0761 65.1154 24.9457 65.2496C30.0665 65.4272 35.1065 66.1395 40.4726 67.4444C44.0399 68.3118 47.0888 68.1441 47.0888 67.0806C47.0888 66.9481 47.5757 65.7788 48.1709 64.4822C50.1017 60.2764 51.1298 54.5478 51.0126 48.6484C50.9497 45.4754 51.1574 43.4999 51.6319 42.7624C51.788 42.5199 52.0145 41.9245 52.1354 41.4393C52.2561 40.9544 52.4664 40.1587 52.6027 39.6714C53.2912 37.2087 50.0311 35.916 45.3245 36.7856ZM43.3396 61.1567C43.3396 61.95 41.6245 62.89 41.2582 62.2976C41.1039 62.0477 42.5815 60.7319 43.0164 60.7319C43.1942 60.7319 43.3396 60.923 43.3396 61.1567Z" fill="#C08A64"/>
<path d="M41.0027 59.6478C41.1776 60.6973 40.5654 61.397 40.2374 61.6156C39.3633 61.6156 37.0674 61.3572 36.7395 60.8503C35.7774 59.3635 34.6621 58.6273 34.2246 58.4452C30.2889 56.6085 32.0228 53.4163 32.4754 50.2458C32.8252 47.797 35.7555 47.622 37.6991 46.8568C35.622 43.2491 41.1063 41.8713 41.8716 43.8392C42.4838 45.4135 42.9342 46.1278 43.5172 46.4193C42.9049 47.3813 43.2622 49.8083 43.5172 50.9016C40.631 51.7762 41.8773 53.3797 42.8612 54.072C42.8977 54.5823 42.8394 55.6244 42.3146 55.7119C41.6586 55.8212 40.784 58.3359 41.0027 59.6478Z" fill="#020202"/>
</g>
<defs>
<clipPath id="clip0_1_380">
<rect width="53.5691" height="68" fill="white"/>
</clipPath>
</defs>
</svg>
