<?xml version="1.0" encoding="utf-8"?>
<!-- Generator: Adobe Illustrator 27.5.0, SVG Export Plug-In . SVG Version: 6.00 Build 0)  -->
<svg version="1.1" xmlns="http://www.w3.org/2000/svg" xmlns:xlink="http://www.w3.org/1999/xlink" x="0px" y="0px"
	 viewBox="0 0 750 500" style="enable-background:new 0 0 750 500;" xml:space="preserve">
<g id="BACKGROUND">
</g>
<g id="OBJECTS">
	<g>
		<ellipse style="opacity:0.1;fill:#223142;" cx="229.728" cy="463.826" rx="173.978" ry="14.863"/>
		<ellipse style="opacity:0.1;fill:#223142;" cx="596.86" cy="463.826" rx="62.5" ry="14.863"/>
	</g>
	<g>
		<g>
			<g>
				<path style="fill:#FFAA91;" d="M650.062,266.496l-58.832-5.028l-10.057,14.582c0,0-49.278,17.096-58.831,32.181
					c-9.554,15.085-11.565,24.136-3.52,29.164c8.045,5.028,33.69-14.582,43.746-14.582c10.057,0,41.232-4.023,46.261-14.582
					c5.028-10.56,9.051,21.119,10.057,41.735c1.006,20.616-5.028,51.289-2.514,63.357c2.514,12.068-2.514,26.65-4.023,31.176
					c-1.508,4.526-2.011,11.565-2.011,11.565l-2.011,11.062c0,0-2.466,5.179,1.159,5.304c3.376,0.116,5.99,1.201,5.93-3.595
					l0.021-0.002c0.148,1.306,0.59,3.223,1.925,2.972c1.441-0.27,1.454-2.223,1.349-3.296l0.024-0.002
					c0.228,1.184,0.762,3.418,1.503,3.048c0.687-0.343,1.432-0.274,1.346-1.534c0.3,0.577,0.712,0.996,1.279,0.909
					c1.11-0.171,0.995-1.858,0.811-2.91l0.234-0.023c0.526,0.954,1.449,2.393,2.206,2.309c0.776-0.086,0.957-1.657,0.995-2.624
					l0.005-0.001l1.833-6.085l-3.52-12.068c0,0,2.011-6.034,1.508-11.062c0,0,9.554-24.136,13.074-36.204
					c3.52-12.068-1.006-29.667,2.011-41.735C645.033,348.457,658.61,306.722,650.062,266.496z"/>
				<path style="fill:#FF885F;" d="M650.062,266.496l-58.832-5.028l-10.057,14.582c0,0-27.173,9.432-45.075,20.465
					c2.758,10.47,10.465,20.398,17.979,27.247c0.359,0.327,0.726,0.639,1.089,0.959c2.893-1.159,5.445-1.907,7.402-1.907
					c10.057,0,41.232-4.023,46.261-14.582c4.528-9.509,8.239,15.232,9.668,35.304c9.321,2.863,18.899,3.301,27.996-0.181
					C651.036,324.432,656.138,295.089,650.062,266.496z"/>
			</g>
			<g>
				<path style="fill:#FFAA91;" d="M519.576,326.207c0,0,18.843-15.083,38.09-9.051c25.267,7.92,56.192,2.64,57.7,5.154
					c1.508,2.514,6.537,42.238,3.52,44.752c-3.561,2.968-13.576-27.153-17.599-27.656c-4.023-0.503-76.287,2.107-82.465-2.011
					C512.788,333.372,519.576,326.207,519.576,326.207z"/>
				<path style="fill:#FF885F;" d="M617.849,336.221c-0.472,6.113-1.275,12.226-1.911,18.341c-0.313,3.009-0.654,6.011-1.039,9.002
					c1.63,2.722,3.039,4.288,3.988,3.498C620.807,365.461,619.466,348.782,617.849,336.221z"/>
			</g>
			<g>
				<path style="fill:#B4C069;" d="M551.255,284.346c0,0,9.428,28.284,27.53,37.335c0,0,19.233-7.165,28.661-5.28
					c4.068,0.814,6.034,17.348,9.428,21.496c0,0,18.479,4.526,29.793-0.377l0.377-7.92l1.886,7.92l4.148,0.377
					c0,0,9.805-42.615-2.263-69.768c0,0-48.649-2.011-59.586-6.663C591.23,261.467,567.848,270.015,551.255,284.346z"/>
				<g>
					<defs>
						<path id="SVGID_1_" d="M551.255,284.346c0,0,9.428,28.284,27.53,37.335c0,0,19.233-7.165,28.661-5.28
							c4.068,0.814,6.034,17.348,9.428,21.496c0,0,18.479,4.526,29.793-0.377l0.377-7.92l1.886,7.92l4.148,0.377
							c0,0,9.805-42.615-2.263-69.768c0,0-48.649-2.011-59.586-6.663C591.23,261.467,567.848,270.015,551.255,284.346z"/>
					</defs>
					<clipPath id="SVGID_00000125570333118669557570000011014279327639467707_">
						<use xlink:href="#SVGID_1_"  style="overflow:visible;"/>
					</clipPath>
					
						<path style="clip-path:url(#SVGID_00000125570333118669557570000011014279327639467707_);fill:none;stroke:#FFFFFF;stroke-width:1.5085;stroke-miterlimit:10;" d="
						M641.388,265.113c0,0,7.165,45.632,1.131,76.556"/>
					
						<path style="clip-path:url(#SVGID_00000125570333118669557570000011014279327639467707_);fill:none;stroke:#FFFFFF;stroke-width:1.5085;stroke-miterlimit:10;" d="
						M645.159,265.113c0,0,7.165,45.632,1.131,76.556"/>
					
						<path style="clip-path:url(#SVGID_00000125570333118669557570000011014279327639467707_);fill:none;stroke:#FFFFFF;stroke-width:1.5085;stroke-miterlimit:10;" d="
						M648.553,265.113c0,0,7.165,45.632,1.131,76.556"/>
				</g>
				<path style="opacity:0.2;fill:#002A2D;" d="M600.953,272.476c7.31,1.738,14.811,2.858,22.339,2.842
					c9.829-0.02,19.732-0.819,29.107-3.149c-0.484-1.375-1-2.73-1.582-4.04c0,0-48.649-2.011-59.586-6.663
					c0,0-2.921,1.07-7.42,3.078C587.871,269.129,595.617,271.207,600.953,272.476z"/>
				<path style="opacity:0.2;fill:#002A2D;" d="M587.164,293.796c-5.106-7.018-12.033-14.988-14.583-23.738
					c-6.901,3.711-14.659,8.531-21.326,14.288c0,0,9.428,28.284,27.53,37.335c0,0,16.762-6.243,26.66-5.538
					C598.491,309.548,592.743,301.465,587.164,293.796z"/>
			</g>
		</g>
		<g>
			<g>
				<path style="fill:#FFAA91;" d="M630.89,29.737c-0.348,0.035-0.643,1.08-0.885,2.513c0.229-3.171,0.307-6.044-0.145-6.194
					c-0.859-0.286-4.471,16.66-5.635,22.238c-8.862,11.72-28.873,38.38-31.989,44.222c-4.023,7.543-9.554,12.571-10.56,31.176
					c-1.843,34.098,9.051,32.684,7.04,49.278s5.028,49.781,5.028,49.781l-0.013,0.541c10.714-5.701,21.438-11.374,32.598-16.165
					c0.206-13.172-0.446-26.354-0.925-39.533l-6.061-1.002c-4.561-14.443-11.539-11.291-12.022-25.3
					c-0.408-11.828-6.034-24.136-6.034-24.136c9.125-9.56,20.127-40.896,22.947-49.232c1.691-0.477,6.209-1.908,7.683-3.935
					C633.744,61.475,632.032,29.623,630.89,29.737z"/>
				<g>
					<path style="fill:#FF885F;" d="M630.89,29.737c-0.348,0.035-0.643,1.08-0.885,2.513c0.229-3.171,0.307-6.044-0.145-6.194
						c-0.859-0.286-4.471,16.66-5.635,22.238c-1.566,2.071-3.484,4.614-5.592,7.421c0.795,5.882,2.147,11.647,3.819,17.342
						c0.753-2.122,1.36-3.889,1.781-5.134c1.691-0.477,6.209-1.908,7.683-3.935C633.744,61.475,632.032,29.623,630.89,29.737z"/>
					<path style="fill:#FF885F;" d="M626.272,193.391c-0.173-8.599-0.556-17.2-0.868-25.799l-6.061-1.002
						c-4.561-14.443-11.539-11.291-12.022-25.3c-0.269-7.815-2.816-15.837-4.514-20.383
						C599.514,144.98,600.209,183.499,626.272,193.391z"/>
				</g>
			</g>
			<g>
				<g>
					<g>
						<g>
							<path style="fill:#FFAA91;" d="M653.282,171.543c-7.052-3.163-14.279-5-14.279-5s4.294-54.104,4.938-59.901
								c0.644-5.797-31.561-19.323-33.923-3.865c0,0-5.797,32.42-4.724,42.511c1.074,10.091,9.876,11.808,9.876,11.808
								s-0.215,7.3-1.718,7.944c-0.494,0.212,3.602,16.752,0.241,17.348c1.712,6.844-3.297-2.486-1.63,4.389
								c9.495,1.676,19.978,2.915,29.181,3.337C645.287,183.941,649.365,177.788,653.282,171.543z"/>
							<path style="fill:#FFAA91;" d="M640.934,130.259c0,0,4.509-9.661,9.018-6.226c4.509,3.435-3.65,21.899-8.803,14.17
								C635.996,130.473,640.934,130.259,640.934,130.259z"/>
						</g>
						<path style="fill:#FF885F;" d="M614.48,163.061c0.583-2.367,0.69-5.964,0.69-5.964c16.974,2.142,23.701-10.514,25.912-16.514
							c-0.556,6.876-1.083,13.45-1.467,18.264C632.259,162.834,623.191,164.056,614.48,163.061z"/>
					</g>
					<g>
						<path style="fill:#4D1A04;" d="M655.783,105.277l0.06-0.012c-6.02-15.05-19.063-19.35-32.107-17.63
							c-13.043,1.72-13.617,13.76-13.617,13.76c0.43,10.033,21.787,1.577,26.087,4.3c-1.72,8.313,3.297,12.907,3.297,12.907
							l-0.337,12.151c-0.593,8.211-2.142,17.384-6.114,17.226c-7.167-0.287-1.863-9.747-9.03-9.03
							c-7.167,0.717-15.767-2.293-15.193,3.297c0.573,5.59-3.153,5.017-3.583-2.58c0,0-4.873,15.337,5.303,17.2
							c10.177,1.863,23.937,1.72,28.38-5.303c3.099-4.898,3.13-14.044,3.206-20.3l0.301-2.936c3.019-7.184,8.373-3.22,8.373-3.22
							S657.712,112.155,655.783,105.277z"/>
						<path style="fill:#351003;" d="M655.783,105.277l0.06-0.012c-2.699-6.749-6.814-11.33-11.704-14.182
							c-0.176,4.386-1.703,8.528-5.558,11.326c-1.635,1.186-3.419,2.054-5.281,2.72c1.257,0.01,2.272,0.164,2.907,0.567
							c-1.72,8.313,3.297,12.907,3.297,12.907l-0.337,12.151c-0.58,8.035-2.082,16.966-5.867,17.199
							c-1.563,4.567-5.415,7.588-12.242,7.425c-4.453-0.106-9.165,0.447-13.704,0.178c0.849,0.615,1.899,1.073,3.195,1.311
							c10.177,1.863,23.937,1.72,28.38-5.303c3.099-4.898,3.13-14.044,3.206-20.3l0.301-2.936c3.019-7.184,8.373-3.22,8.373-3.22
							S657.712,112.155,655.783,105.277z"/>
					</g>
				</g>
				<g>
					<g>
						<path style="fill:#DB6849;" d="M616.487,121.006c-0.082,1.331-0.221,2.652-0.396,3.965c-0.171,1.314-0.367,2.622-0.593,3.925
							c-0.209,1.306-0.476,2.6-0.725,3.898c-0.272,1.293-0.542,2.587-0.854,3.872l-0.393-0.655c1.111,0.375,2.216,0.768,3.311,1.194
							c1.097,0.419,2.187,0.864,3.26,1.365c-1.172-0.171-2.327-0.398-3.474-0.651c-1.149-0.246-2.288-0.525-3.422-0.822
							l-0.478-0.125l0.085-0.53c0.209-1.306,0.46-2.604,0.708-3.902c0.272-1.294,0.526-2.59,0.837-3.876
							c0.295-1.289,0.619-2.572,0.969-3.849C615.665,123.537,616.048,122.266,616.487,121.006z"/>
					</g>
					<g>
						<path style="fill:#3A1204;" d="M619.531,120.299c0,0,0.116-0.214,0.389-0.522c0.268-0.315,0.694-0.719,1.273-1.119
							c0.58-0.398,1.325-0.767,2.186-1.025c0.432-0.118,0.891-0.221,1.367-0.269c0.478-0.038,0.967-0.072,1.459-0.015
							c0.245,0.027,0.491,0.046,0.733,0.086c0.241,0.051,0.478,0.119,0.713,0.181c0.477,0.098,0.905,0.333,1.32,0.525
							c0.425,0.176,0.762,0.483,1.101,0.717c0.342,0.234,0.598,0.536,0.836,0.801c0.229,0.275,0.452,0.504,0.586,0.767
							c0.151,0.244,0.261,0.474,0.352,0.657c0.18,0.368,0.253,0.591,0.253,0.591s-0.241-0.073-0.609-0.222
							c-0.183-0.076-0.406-0.16-0.637-0.276c-0.226-0.124-0.532-0.182-0.813-0.301c-0.29-0.107-0.58-0.249-0.915-0.323
							c-0.33-0.08-0.639-0.237-0.995-0.286c-0.349-0.066-0.686-0.183-1.051-0.216c-0.358-0.059-0.717-0.125-1.088-0.133
							c-0.364-0.062-0.738-0.035-1.107-0.061c-0.376,0.007-0.746,0.013-1.104,0.019c-0.726,0.042-1.432,0.099-2.056,0.17
							c-0.625,0.064-1.171,0.131-1.563,0.18C619.761,120.271,619.531,120.299,619.531,120.299z"/>
					</g>
					<g>
						<path style="fill:#3A1204;" d="M614.893,120.072c0,0-0.538-0.151-1.346-0.377c-0.381-0.097-0.797-0.206-1.223-0.299
							c-0.428-0.079-0.86-0.167-1.287-0.179c-0.214-0.034-0.424-0.017-0.636-0.02c-0.214-0.019-0.418,0.036-0.63,0.034
							c-0.211,0.004-0.41,0.067-0.617,0.083c-0.209,0.011-0.396,0.08-0.587,0.11c-0.182,0.048-0.376,0.059-0.529,0.113
							c-0.154,0.049-0.305,0.078-0.427,0.107c-0.25,0.053-0.411,0.075-0.411,0.075s0.051-0.142,0.172-0.376
							c0.126-0.228,0.302-0.578,0.641-0.879c0.165-0.155,0.33-0.356,0.564-0.484c0.229-0.133,0.464-0.308,0.746-0.402
							c0.282-0.089,0.573-0.225,0.891-0.245c0.315-0.051,0.639-0.073,0.96-0.041c1.311,0.079,2.41,0.8,2.98,1.482
							C614.756,119.444,614.893,120.072,614.893,120.072z"/>
					</g>
					<g>
						<path style="fill:#DB6849;" d="M643.498,138.373c0.253-0.056,0.487-0.152,0.688-0.287c0.096-0.074,0.208-0.12,0.276-0.22
							c0.072-0.092,0.161-0.163,0.214-0.261l0.14-0.299c0.054-0.092,0.037-0.222,0.06-0.326c0.005-0.112,0.047-0.21,0.032-0.327
							l-0.04-0.344c-0.014-0.108-0.022-0.238-0.038-0.324l-0.094-0.372c-0.068-0.2-0.137-0.412-0.243-0.558
							c-0.102-0.159-0.199-0.193-0.24-0.184c-0.03,0.008-0.067,0.006-0.127,0.035c-0.05,0.019-0.14,0.076-0.16,0.096l-0.842,0.87
							l-0.052-1.292c-0.046-1.141,0.018-2.252,0.159-3.381c0.07-0.563,0.188-1.123,0.33-1.683c0.149-0.56,0.326-1.12,0.622-1.659
							c0.143-0.269,0.313-0.538,0.526-0.786c0.117-0.121,0.223-0.247,0.353-0.356l0.451-0.282c0.346-0.146,0.546-0.193,0.826-0.294
							c0.286-0.077,0.628-0.111,0.931-0.148c0.314,0.041,0.622,0.001,0.922,0.121c0.148,0.054,0.297,0.099,0.436,0.162l0.385,0.264
							c0.134,0.075,0.211,0.225,0.311,0.335c0.104,0.111,0.174,0.243,0.222,0.385c0.145,0.261,0.139,0.564,0.17,0.834
							c-0.112-0.261-0.202-0.512-0.383-0.708c-0.07-0.109-0.156-0.202-0.268-0.269c-0.11-0.065-0.18-0.172-0.305-0.205l-0.335-0.138
							c-0.119-0.024-0.243-0.03-0.36-0.048c-0.229-0.059-0.486,0.028-0.718,0.026c-0.232,0.08-0.44,0.128-0.676,0.213
							c-0.226,0.113-0.548,0.253-0.695,0.343c-0.075,0.068-0.15,0.13-0.227,0.188l-0.203,0.252c-0.13,0.177-0.246,0.388-0.343,0.611
							c-0.196,0.447-0.333,0.948-0.461,1.451c-0.122,0.508-0.201,1.032-0.279,1.559c-0.154,1.052-0.238,2.141-0.293,3.2
							l-0.894-0.421c0.184-0.132,0.322-0.195,0.513-0.258c0.179-0.061,0.404-0.082,0.625-0.041c0.472,0.091,0.77,0.458,0.901,0.743
							c0.15,0.297,0.206,0.585,0.258,0.879l0.031,0.382c0.007,0.167-0.01,0.292-0.015,0.439l-0.026,0.42
							c-0.006,0.139-0.079,0.281-0.122,0.418c-0.059,0.134-0.077,0.278-0.172,0.395l-0.267,0.347
							c-0.094,0.107-0.231,0.174-0.342,0.256c-0.109,0.09-0.253,0.116-0.378,0.167C644.026,138.385,643.75,138.394,643.498,138.373z
							"/>
					</g>
					<g>
						<path style="fill:#141423;" d="M608.154,122.905c0,0,0.039,0.156,0.092,0.431c0.052,0.274,0.147,0.656,0.271,1.106
							c0.056,0.226,0.155,0.457,0.229,0.708c0.117,0.23,0.199,0.497,0.357,0.716c0.124,0.249,0.327,0.425,0.508,0.618l0.33,0.204
							c0.059,0.037,0.287,0.108,0.398,0.132c0.21,0.043,0.478,0.024,0.712-0.06c0.232-0.105,0.461-0.245,0.657-0.433
							c0.398-0.369,0.696-0.826,0.943-1.218c0.24-0.399,0.438-0.744,0.557-0.994c0.129-0.248,0.202-0.39,0.202-0.39
							s-0.068,0.641-0.417,1.554c-0.182,0.451-0.43,0.979-0.868,1.46c-0.22,0.237-0.491,0.465-0.83,0.616
							c-0.35,0.134-0.729,0.192-1.143,0.104c-0.191-0.056-0.275-0.076-0.493-0.181l-0.463-0.304
							c-0.249-0.254-0.474-0.528-0.602-0.823c-0.173-0.28-0.223-0.583-0.319-0.853c-0.053-0.278-0.113-0.54-0.13-0.783
							C608.055,123.538,608.154,122.905,608.154,122.905z"/>
					</g>
					<g>
						<path style="fill:#141423;" d="M622.69,123.419c0,0,0.023,0.178,0.063,0.49c0.036,0.31,0.121,0.748,0.242,1.257
							c0.129,0.504,0.312,1.09,0.642,1.596c0.165,0.25,0.379,0.461,0.62,0.61c0.258,0.146,0.505,0.208,0.863,0.215
							c0.626,0.037,1.264-0.142,1.747-0.498c0.492-0.353,0.855-0.836,1.122-1.278c0.263-0.446,0.452-0.85,0.559-1.142
							c0.113-0.29,0.168-0.463,0.168-0.463s0.005,0.182-0.037,0.497c-0.051,0.312-0.123,0.767-0.331,1.284
							c-0.204,0.513-0.536,1.11-1.103,1.588c-0.56,0.492-1.374,0.751-2.174,0.712c-0.356-0.004-0.826-0.113-1.169-0.337
							c-0.358-0.222-0.611-0.548-0.795-0.866c-0.357-0.651-0.465-1.307-0.512-1.854C622.52,124.128,622.69,123.419,622.69,123.419z"
							/>
					</g>
					<path style="fill:#FFFFFF;" d="M610.837,142.533c0,0,8.887-0.287,15.193-1.29C626.03,141.243,618.863,148.41,610.837,142.533z"
						/>
				</g>
			</g>
			<g>
				<path style="fill:#FFAA91;" d="M669.082,95.907c-2.302-5.383-16.365-28.115-25-41.906c-0.712-2.301-9.38-30.201-11.022-30.201
					c-1.713,0,2.398,16.212,2.398,16.212s-5.023-19.979-6.736-19.408c-1.043,0.348,0.285,7.804,1.483,13.585
					c-1.972-4.065-4.166-8.119-4.777-7.42c-0.946,1.081,4.072,14.629,6.089,19.935c-0.001,0.027-0.001,0.053-0.002,0.08
					c-1.371-3.347-4.087-9.613-5.077-9.242c-1.324,0.497,4.832,16.439,5.04,16.976c0.059,3.81,0.268,7.266,0.783,8.556
					c1.37,3.425,6.546,3.475,6.546,3.475s9.572,41.2,19.143,53.128c0,0-6.662,11.779-8.084,23.529
					c-1.753,14.485-8.922,9.83-14.855,25.974l-3.569-0.59c0.455,12.311,1.036,24.624,0.907,36.929
					c1.797,0.931,2.144,4.244-0.107,5.543c-0.144,4.888-0.419,9.775-0.881,14.66c-0.362,3.817-6.365,3.852-6,0
					c0.379-4.007,0.628-8.015,0.787-12.024c-11.134,4.91-21.848,10.697-32.585,16.436l-0.823,33.346l0.572-2.003l-0.572,3.511
					l56.317,6.034l7.343-45.491c0,0,9.863-32.46,9.283-49.165c-0.58-16.705,10.153-14.361,11.244-48.492
					C677.521,109.251,672.442,103.767,669.082,95.907z"/>
				<g>
					<path style="fill:#002A2D;" d="M587.836,262.473c0,0,32.81,16.971,63.734,7.165c0,0,13.954-59.209,14.331-73.162
						c0,0-20.365-19.233-23.759-38.467l-2.64,1.131c0,0,1.886,29.793-12.068,29.039c-15.458-0.836-9.428-26.022-9.428-26.022
						l-1.509-2.64c0,0-15.085,36.958-26.399,44.124c0,0,3.017,22.25,2.64,35.827C592.362,253.045,587.836,262.473,587.836,262.473z"
						/>
					<path style="fill:#001516;" d="M657.265,186.957c-6.86,19.335-22.116,35.005-41.081,43.488
						c-7.563,3.383-15.409,5.149-23.416,6.032c0.005,1.032-0.003,2.034-0.03,2.991c-0.377,13.576-4.903,23.005-4.903,23.005
						s32.81,16.971,63.734,7.165c0,0,13.954-59.209,14.331-73.162C665.901,196.476,661.965,192.757,657.265,186.957z"/>
				</g>
			</g>
		</g>
	</g>
	<g>
		<g>
			<g>
				<g>
					<g>
						<path style="fill:#FF885F;" d="M151.927,107.444c0,0,5.797,32.42,4.724,42.511c-1.074,10.091-9.876,11.808-9.876,11.808
							s0.215,7.3,1.718,7.944c1.503,0.644,21.114,2.051,29.487,10.424c8.373,8.373-77.888,21.811-82.182,10.432
							s27.146-19.353,27.146-19.353s-4.294-54.104-4.938-59.901C117.36,105.511,149.566,91.985,151.927,107.444z"/>
						<path style="fill:#FF885F;" d="M121.01,134.925c0,0-4.509-9.661-9.018-6.226c-4.509,3.435,3.65,21.899,8.803,14.17
							C125.948,135.14,121.01,134.925,121.01,134.925z"/>
						<path style="fill:#E57051;" d="M147.464,167.727c-0.583-2.367-0.69-5.965-0.69-5.965
							c-16.974,2.142-23.701-10.514-25.912-16.514c0.556,6.876,1.083,13.45,1.467,18.264
							C129.686,167.501,138.753,168.723,147.464,167.727z"/>
					</g>
					<g>
						<path style="fill:#002A2D;" d="M155.593,107.909c0,0,4.721-9.598-1.416-18.095c0,0,0.629,3.934-0.787,6.294
							c0,0,1.101-5.507-4.091-8.812c0,0,2.36,5.193-2.203,6.294c-4.259,1.028-29.481-6.844-33.21,9.371
							c-2.278,0.074-4.994,1.336-7.261,5.771c-3.283,6.424,4.509,21.041,4.509,21.041s5.355-3.964,8.373,3.22l0.5,4.874
							c0.932-0.275,1.871-0.507,2.819-0.695l-0.386-13.902c0,0,2.864-3.911,3.571-8.595c0,0,28.48,5.192,31.47-7.867
							L155.593,107.909z"/>
						<path style="fill:#001111;" d="M131.869,113.378c-5.397-1.569-13.513-5.696-14.743-11.906
							c-0.268-1.352-0.383-2.768-0.337-4.183c-1.338,1.446-2.356,3.294-2.903,5.672c-2.278,0.074-4.994,1.336-7.261,5.771
							c-3.283,6.424,4.509,21.041,4.509,21.041s5.355-3.964,8.373,3.22l0.5,4.874c0.932-0.275,1.871-0.507,2.819-0.695
							l-0.386-13.902c0,0,2.864-3.911,3.571-8.595c0,0,12.046,2.192,21.293,0.134C142.109,115.236,136.296,114.665,131.869,113.378z
							"/>
					</g>
				</g>
				<g>
					<g>
						<path style="fill:#C64320;" d="M145.458,125.673c0.263,0.71,0.489,1.429,0.72,2.146c0.238,0.716,0.461,1.435,0.669,2.158
							c0.425,1.443,0.823,2.893,1.193,4.348c0.386,1.452,0.715,2.917,1.062,4.379c0.324,1.466,0.65,2.932,0.933,4.408l0.138,0.716
							l-0.691-0.022c-1.272-0.041-2.544-0.1-3.816-0.194c-0.636-0.037-1.272-0.102-1.908-0.164
							c-0.636-0.059-1.272-0.119-1.908-0.209c0.636-0.09,1.272-0.15,1.908-0.209c0.636-0.061,1.272-0.127,1.908-0.164
							c1.272-0.094,2.544-0.154,3.816-0.194l-0.552,0.693c-0.387-1.452-0.731-2.914-1.079-4.375
							c-0.324-1.466-0.666-2.928-0.95-4.404c-0.301-1.472-0.573-2.95-0.819-4.434c-0.128-0.741-0.24-1.486-0.337-2.234
							C145.64,127.172,145.531,126.427,145.458,125.673z"/>
					</g>
					<g>
						<path style="fill:#002A2D;" d="M142.414,124.965c0,0-0.23-0.027-0.633-0.075c-0.392-0.049-0.937-0.115-1.563-0.18
							c-0.624-0.071-1.33-0.128-2.056-0.17c-0.358-0.006-0.728-0.013-1.104-0.019c-0.369,0.026-0.743-0.001-1.107,0.061
							c-0.371,0.008-0.73,0.074-1.088,0.133c-0.365,0.033-0.702,0.15-1.051,0.216c-0.356,0.049-0.665,0.206-0.995,0.286
							c-0.335,0.075-0.625,0.216-0.915,0.323c-0.281,0.119-0.587,0.177-0.813,0.301c-0.231,0.116-0.454,0.2-0.637,0.276
							c-0.368,0.149-0.609,0.222-0.609,0.222s0.073-0.223,0.253-0.591c0.091-0.182,0.201-0.412,0.352-0.657
							c0.134-0.263,0.357-0.492,0.586-0.767c0.238-0.265,0.494-0.567,0.837-0.801c0.338-0.234,0.675-0.542,1.1-0.717
							c0.415-0.192,0.843-0.427,1.32-0.525c0.235-0.061,0.472-0.13,0.713-0.181c0.242-0.04,0.488-0.059,0.733-0.086
							c0.493-0.058,0.981-0.023,1.459,0.015c0.475,0.047,0.935,0.151,1.367,0.269c0.861,0.258,1.606,0.627,2.186,1.025
							c0.58,0.401,1.005,0.804,1.273,1.119C142.298,124.751,142.414,124.965,142.414,124.965z"/>
					</g>
					<g>
						<path style="fill:#002A2D;" d="M147.051,124.739c0,0,0.137-0.628,0.739-1.3c0.57-0.682,1.669-1.403,2.98-1.482
							c0.321-0.031,0.645-0.009,0.96,0.042c0.318,0.02,0.609,0.156,0.892,0.245c0.282,0.095,0.517,0.269,0.746,0.402
							c0.234,0.128,0.399,0.329,0.564,0.484c0.338,0.301,0.514,0.651,0.641,0.879c0.121,0.234,0.172,0.376,0.172,0.376
							s-0.161-0.022-0.411-0.075c-0.123-0.029-0.273-0.058-0.427-0.107c-0.153-0.054-0.347-0.065-0.529-0.113
							c-0.191-0.03-0.379-0.099-0.587-0.11c-0.206-0.016-0.405-0.079-0.617-0.083c-0.212,0.002-0.416-0.053-0.63-0.034
							c-0.211,0.003-0.422-0.014-0.636,0.02c-0.427,0.012-0.859,0.1-1.287,0.179c-0.426,0.092-0.843,0.202-1.223,0.299
							C147.589,124.588,147.051,124.739,147.051,124.739z"/>
					</g>
					<g>
						<path style="fill:#C64320;" d="M118.447,143.04c-0.253,0.021-0.528,0.011-0.783-0.077c-0.124-0.051-0.268-0.077-0.377-0.167
							c-0.112-0.082-0.249-0.148-0.343-0.256l-0.267-0.347c-0.096-0.117-0.113-0.261-0.173-0.395
							c-0.042-0.136-0.116-0.279-0.122-0.418l-0.026-0.42c-0.005-0.146-0.022-0.272-0.015-0.439l0.031-0.382
							c0.052-0.294,0.108-0.582,0.258-0.879c0.131-0.285,0.429-0.652,0.901-0.743c0.221-0.041,0.445-0.02,0.625,0.041
							c0.191,0.063,0.329,0.126,0.513,0.258l-0.894,0.421c-0.055-1.059-0.139-2.148-0.293-3.2c-0.079-0.527-0.158-1.051-0.279-1.559
							c-0.128-0.503-0.265-1.004-0.462-1.451c-0.096-0.222-0.213-0.434-0.342-0.611l-0.203-0.252
							c-0.077-0.058-0.152-0.12-0.227-0.188c-0.148-0.09-0.469-0.23-0.695-0.343c-0.237-0.085-0.444-0.133-0.677-0.213
							c-0.231,0.001-0.489-0.086-0.718-0.027c-0.117,0.018-0.241,0.024-0.36,0.048l-0.335,0.138
							c-0.125,0.033-0.196,0.14-0.305,0.205c-0.112,0.067-0.198,0.16-0.268,0.269c-0.181,0.195-0.271,0.447-0.383,0.708
							c0.031-0.27,0.025-0.572,0.17-0.834c0.048-0.143,0.118-0.274,0.222-0.385c0.1-0.11,0.177-0.26,0.311-0.335l0.385-0.264
							c0.139-0.064,0.288-0.109,0.436-0.163c0.299-0.12,0.608-0.081,0.922-0.121c0.303,0.037,0.645,0.071,0.931,0.148
							c0.28,0.101,0.479,0.148,0.825,0.294l0.451,0.282c0.13,0.108,0.236,0.235,0.353,0.356c0.213,0.248,0.383,0.517,0.526,0.786
							c0.296,0.54,0.474,1.099,0.622,1.659c0.142,0.56,0.26,1.12,0.33,1.683c0.141,1.128,0.205,2.24,0.159,3.381l-0.052,1.292
							l-0.842-0.87c-0.02-0.02-0.11-0.077-0.16-0.096c-0.06-0.028-0.097-0.026-0.127-0.035c-0.042-0.01-0.138,0.025-0.24,0.184
							c-0.105,0.146-0.175,0.358-0.243,0.558l-0.094,0.372c-0.016,0.086-0.024,0.216-0.038,0.324l-0.04,0.344
							c-0.015,0.117,0.027,0.214,0.032,0.327c0.023,0.104,0.006,0.234,0.06,0.326l0.14,0.299c0.054,0.098,0.143,0.169,0.214,0.261
							c0.068,0.1,0.18,0.146,0.276,0.22C117.96,142.888,118.194,142.984,118.447,143.04z"/>
					</g>
					<g>
						<path style="fill:#141423;" d="M153.79,127.572c0,0,0.099,0.633,0.01,1.609c-0.017,0.243-0.077,0.505-0.13,0.783
							c-0.096,0.27-0.146,0.573-0.319,0.853c-0.129,0.295-0.353,0.569-0.602,0.823l-0.463,0.304
							c-0.218,0.105-0.302,0.125-0.493,0.181c-0.414,0.089-0.793,0.03-1.143-0.104c-0.339-0.15-0.61-0.379-0.83-0.616
							c-0.438-0.48-0.686-1.009-0.868-1.46c-0.349-0.913-0.417-1.554-0.417-1.554s0.073,0.142,0.202,0.39
							c0.119,0.25,0.317,0.595,0.557,0.994c0.247,0.392,0.546,0.849,0.943,1.218c0.196,0.188,0.425,0.328,0.657,0.433
							c0.234,0.084,0.502,0.103,0.712,0.06c0.111-0.024,0.339-0.095,0.398-0.132l0.33-0.204c0.181-0.193,0.383-0.37,0.508-0.618
							c0.158-0.219,0.24-0.486,0.357-0.716c0.074-0.251,0.173-0.482,0.229-0.708c0.124-0.45,0.219-0.832,0.271-1.106
							C153.751,127.728,153.79,127.572,153.79,127.572z"/>
					</g>
					<g>
						<path style="fill:#141423;" d="M139.255,128.085c0,0,0.17,0.709,0.095,1.812c-0.047,0.547-0.155,1.203-0.512,1.854
							c-0.184,0.318-0.436,0.644-0.795,0.866c-0.344,0.223-0.813,0.332-1.169,0.337c-0.801,0.039-1.614-0.22-2.174-0.712
							c-0.567-0.478-0.899-1.074-1.103-1.588c-0.208-0.517-0.28-0.972-0.331-1.284c-0.043-0.315-0.037-0.497-0.037-0.497
							s0.055,0.173,0.168,0.463c0.107,0.292,0.296,0.696,0.559,1.142c0.267,0.442,0.63,0.926,1.122,1.278
							c0.484,0.357,1.122,0.535,1.747,0.498c0.358-0.007,0.605-0.07,0.863-0.215c0.242-0.149,0.455-0.36,0.62-0.61
							c0.329-0.506,0.512-1.092,0.642-1.596c0.121-0.509,0.206-0.948,0.242-1.257C139.232,128.264,139.255,128.085,139.255,128.085z
							"/>
					</g>
					<g>
						<path style="fill:#C64320;" d="M133.453,147.309c0,0,0.281,0.132,0.773,0.362c0.484,0.24,1.207,0.518,2.058,0.862
							c0.436,0.148,0.893,0.342,1.394,0.497c0.496,0.17,1.023,0.33,1.572,0.478c0.542,0.175,1.122,0.266,1.699,0.408
							c0.58,0.123,1.178,0.197,1.772,0.28c0.597,0.028,1.195,0.136,1.783,0.102c0.587-0.025,1.171,0.019,1.723-0.084
							c0.557-0.066,1.1-0.112,1.595-0.259c0.498-0.128,0.99-0.201,1.404-0.387c0.422-0.163,0.821-0.295,1.174-0.42
							c0.331-0.172,0.62-0.322,0.857-0.445c0.481-0.245,0.769-0.377,0.769-0.377s-0.233,0.202-0.663,0.541
							c-0.218,0.169-0.482,0.374-0.785,0.609c-0.329,0.193-0.709,0.404-1.132,0.624c-0.411,0.253-0.907,0.398-1.426,0.577
							c-0.514,0.205-1.081,0.316-1.674,0.412c-0.589,0.133-1.208,0.151-1.837,0.177c-0.63,0.045-1.264-0.052-1.901-0.075
							c-1.26-0.177-2.508-0.435-3.62-0.843c-0.565-0.178-1.09-0.404-1.583-0.625c-0.501-0.201-0.944-0.462-1.363-0.671
							c-0.824-0.456-1.47-0.898-1.914-1.215C133.683,147.521,133.453,147.309,133.453,147.309z"/>
					</g>
				</g>
			</g>
			<g>
				<g>
					<path style="fill:#FF885F;" d="M329.507,459.15c-3.013-0.502-29.628-13.057-29.628-13.057s-36.072-62.139-50.218-83.863
						c-14.061-21.594-33.646-74.824-61.768-94.409c-28.122-19.585-66.287-22.096-67.292,26.615c0,0-31.383,54.274-30.131,74.322
						c2.009,32.139,17.144,78.372,17.144,78.372s-13.021,8.821-18.927,13.378c-0.248,0.057-0.491,0.15-0.719,0.331
						c-2.591,2.051-3.022,2.591-2.267,3.238c0.438,0.375,1.087-0.047,1.56-0.468c0.014,0.007,0.028,0.014,0.042,0.021
						c-0.507,0.612-1.109,1.458-0.631,1.526c0.405,0.058,1.177-0.41,1.811-0.859c0.049,0.03,0.099,0.061,0.149,0.092
						c-0.962,1.022-2.294,2.634-1.421,2.925c0.786,0.262,1.849-0.867,2.565-1.796c-0.721,1.102-1.603,2.679-1.054,3.091
						c0.622,0.467,2.416-1.08,3.373-1.983c0.02,0.012,0.039,0.026,0.059,0.038l-2.353,2.701c0,0,0.971,1.403,3.13,1.619
						c2.159,0.216,3.563-2.798,3.563-2.798c2.511-2.511,22.641-10.661,22.598-16.07c-0.038-4.773,13.057-55.742-3.515-74.322
						c0,0,32.641-53.733,42.685-54.737c10.044-1.004,37.161,23.1,67.292,46.702c0,0,4.585,33.766,30.131,51.222
						c30.131,20.589,33.144,39.17,38.668,40.174c5.524,1.004,28.624,5.022,33.144,3.013
						C332.018,462.163,332.52,459.652,329.507,459.15z"/>
					<path style="fill:#E57051;" d="M187.894,267.821c-28.122-19.585-66.287-22.096-67.292,26.615c0,0-23.78,41.127-29.111,65.003
						c7.943,6.016,18.067,9.445,27.827,12.345c8.858-14.051,30.991-47.929,38.947-48.724c9.15-0.915,32.472,19.01,59.332,40.409
						c7.98-5.421,15.725-11.152,22.869-17.613C227.362,320.549,210.352,283.462,187.894,267.821z"/>
				</g>
				<g>
					<path style="fill:#002A2D;" d="M119.598,281.882c0,0,56.244-6.528,76.833-11.55c0,0,38.668,54.737,45.196,68.798
						c0,0-27.62,24.104-44.191,24.104c0,0-28.122-34.65-34.65-33.646c-6.528,1.004-22.096,29.126-29.126,37.161
						c0,0-21.091-3.515-40.676-16.07C92.982,350.68,112.065,299.458,119.598,281.882z"/>
					<g>
						<path style="fill:#002021;" d="M210.294,290.26c-3.88,21.326-22.727,35.12-43.618,40.834
							c9.978,6.543,30.758,32.141,30.758,32.141c16.572,0,44.191-24.104,44.191-24.104
							C237.691,330.654,222.077,307.397,210.294,290.26z"/>
						<path style="fill:#002021;" d="M171.335,289.907c8.186-1.97,15.977-5.86,23.55-9.493c2.068-0.992,4.24-2.038,6.373-3.197
							c-2.966-4.249-4.827-6.885-4.827-6.885c-20.589,5.022-76.833,11.55-76.833,11.55c-0.929,2.168-2.073,4.95-3.364,8.157
							C134.411,291.933,153.563,294.185,171.335,289.907z"/>
					</g>
				</g>
			</g>
			<g>
				<path style="fill:#FF885F;" d="M192.915,212.414c0,0,4.687,16.404,6.361,21.091c1.674,4.687,11.383,13.057,18.413,32.474
					c5.884,16.25-18.078,11.383-18.078,11.383l-19.083-59.257L192.915,212.414z"/>
				<path style="fill:#E57051;" d="M185.639,228.018c3.14-2.617,6.279-5.224,9.634-7.477c-1.295-4.404-2.358-8.127-2.358-8.127
					l-12.387,5.691l3.586,11.136C184.624,228.835,185.137,228.437,185.639,228.018z"/>
				<path style="fill:#E57051;" d="M211.217,251.803c-6.493-0.261-13.288-0.707-19.975-0.426l8.368,25.985
					c0,0,23.962,4.868,18.078-11.383C215.669,260.398,213.426,255.734,211.217,251.803z"/>
				<path style="fill:#8FC9CC;" d="M183.541,218.775l13.391-4.687c0,0-9.374-31.47-19.417-37.161
					c-10.044-5.691-17.787-6.123-17.787-6.123L183.541,218.775z"/>
				<path style="fill:#79B2B2;" d="M174.38,200.32l9.161,18.455l13.391-4.687c0,0-3.593-12.052-8.711-22.589
					C183.812,194.745,179.149,197.599,174.38,200.32z"/>
				<path style="fill:#8FC9CC;" d="M173.33,175.421c-3.121-1.85-7.904-3.454-13.602-4.616c-1.631,4.114-8.249,8.021-13.013,9.136
					c-10.287,2.408-22.765-2.678-28.117-8.682c-8.098,2.026-15.283,5.444-20.092,10.691c-16.572,18.078,18.58,104.453,18.58,104.453
					s46.702,4.017,79.344-16.07C196.43,270.332,186.889,183.456,173.33,175.421z"/>
				<path style="fill:#79B2B2;" d="M189.106,229.816c-17.98-0.245-36.012-2.52-53.542-6.516
					c-11.391-2.597-22.811-5.841-33.282-11.13c-2.559-1.292-5.15-2.661-7.651-4.172c3.532,31.905,22.456,78.404,22.456,78.404
					s46.702,4.017,79.344-16.07c0,0-2.118-19.277-5.774-40.509C190.14,229.82,189.621,229.823,189.106,229.816z"/>
			</g>
		</g>
		<g>
			<g>
				<g>
					<path style="fill:#FFAA91;" d="M328.778,270.392c0,0-11.138-11.644-26.326-10.126s-17.213,9.619-17.213,9.619
						s-25.82-5.063-43.54-2.025c0,0-16.707-9.113-35.439-9.619c-18.732-0.506-45.059,5.063-45.059,5.063s-8.1-9.619-12.657-6.582
						c-4.556,3.038-10.632,13.669-21.77,19.238s-2.531,8.607-2.531,8.607s21.77-8.607,34.427-11.644
						c12.657-3.038,41.008,10.126,72.398,16.707c31.389,6.582,81.511,26.326,94.674,6.582
						C338.904,276.467,328.778,270.392,328.778,270.392z"/>
					<path style="fill:#FF885F;" d="M328.778,270.392c0,0-11.138-11.644-26.326-10.126s-17.213,9.619-17.213,9.619
						s-9.532-1.866-20.985-2.652c-3.303,9.42-3.545,19.988-1.898,30.319c26.49,6.879,54.111,12.572,63.385-1.34
						C338.904,276.467,328.778,270.392,328.778,270.392z"/>
				</g>
				<g>
					<path style="fill:#FFAA91;" d="M328.778,267.861c0,0-34.933-10.126-43.033,10.632c-9.372,24.016,8.456,24.674,4.05,48.096
						c-2.973,15.806,2.531,20.251,0,36.958c-2.531,16.707-4.262,29.688-0.713,46.139c2.229,10.333,8.999,25.43,12.554,35.403
						c2.089,5.861-2.308,10.275,2.009,11.048c16.823,3.013,54.988,16.07,10.295-10.044c0,0-8.45-45.082-6.425-70.396
						c0,0,11.644-32.908,16.201-66.322c0,0,68.347-13.669,84.042-40.502C423.452,242.04,328.778,267.861,328.778,267.861z"/>
					<g>
						<path style="fill:#FF885F;" d="M289.806,326.533c10.034,1.731,20.131,2.849,30.265,3.549c1.032-4.885,1.99-9.94,2.805-15.054
							c-10.472-2.368-21.698-1.277-32.581-0.841C290.878,317.567,290.887,321.529,289.806,326.533z"/>
						<path style="fill:#FF885F;" d="M329.839,267.577c0.56,12.432,4.087,26.658,11.415,37.474
							c21.363-5.965,55.914-18.075,66.503-36.178C422.471,243.718,340.188,264.837,329.839,267.577z"/>
					</g>
				</g>
				<g>
					<path style="fill:#79B2B2;" d="M269.038,263.81c0,0-4.05,30.377,0,39.996l45.059,2.025l14.682-37.971
						c0,0-16.201-11.644-25.82-9.113c-9.619,2.531-19.238,7.594-19.238,7.594L269.038,263.81z"/>
					<path style="fill:#8FC9CC;" d="M328.778,267.861c0,0-16.201-6.582-25.82-3.544c-9.619,3.038-22.276,8.607-22.276,25.82
						c0,17.213,4.05,31.389,4.05,31.389s30.883,3.544,39.996,2.531c0,0,3.038-11.138,3.038-15.695l6.582-0.506v-41.515
						L328.778,267.861z"/>
				</g>
			</g>
			<g>
				<g>
					<g>
						<path style="fill:#FFAA91;" d="M413.591,263.937c0,0,2.226-14.306,11.162-15.747c8.936-1.441,15.739,2.335,13.949-9.912
							l1.654-0.638l-0.98-4.623l4.74-2.945c0,0-6.515-3.865-7.731-9.686c-1.216-5.821-3.447-15.533-14.278-18.67
							c-10.83-3.137-33.965,0.426-25.643,25.688c8.149,24.738-7.137,21.807-7.137,21.807L413.591,263.937z"/>
						<path style="fill:#FF885F;" d="M397.112,232.816c5.941,20.944-7.786,16.394-7.786,16.394l24.264,14.727
							c0,0,2.226-14.306,11.162-15.748c0.959-0.155,1.891-0.247,2.793-0.308c-4.896-0.321-10.327-1.36-13.43-4.135
							c-4.735-4.234-5.89-9.007-6.166-11.393C404.629,234.239,400.556,234.279,397.112,232.816z"/>
					</g>
					<g>
						<g>
							<path style="fill:#351003;" d="M396.647,199.947c0,0,5.674-16.29-4.759-14.094c-10.433,2.197-14.277,19.585,0.366,17.389
								C406.897,201.045,396.647,199.947,396.647,199.947z"/>
							<path style="fill:#2D4059;" d="M393.234,205.77c1.414,0.984,3.653,0.21,5.001-1.727c1.348-1.938,1.295-4.306-0.119-5.29
								c-1.414-0.984-3.653-0.21-5.001,1.727C391.766,202.418,391.82,204.786,393.234,205.77z"/>
						</g>
						<g>
							<g>
								<path style="fill:#4D1A04;" d="M417.896,224.819c1.026-0.403,2.011-0.896,2.973-1.421c0.958-0.534,1.879-1.129,2.757-1.778
									c1.767-1.275,3.362-2.797,4.591-4.57c0.319-0.434,0.584-0.904,0.861-1.363c0.262-0.469,0.508-0.945,0.717-1.439
									c0.211-0.491,0.401-0.994,0.551-1.507c0.161-0.511,0.28-1.032,0.376-1.559c0.095-0.525,0.16-1.059,0.198-1.592
									c0.028-0.535,0.056-1.07,0.023-1.606c0.001-0.537-0.073-1.07-0.127-1.604c-0.062-0.533-0.177-1.061-0.255-1.593l-0.261-1.76
									l1.051,1.381c0.357,0.469,0.607,0.922,0.844,1.412c0.232,0.485,0.427,0.985,0.579,1.498
									c0.318,1.022,0.465,2.091,0.483,3.154c0.015,1.065-0.117,2.127-0.37,3.154c-0.127,0.512-0.271,1.023-0.47,1.511
									c-0.176,0.497-0.405,0.97-0.621,1.448c-0.478,0.933-1.006,1.836-1.613,2.682c-0.599,0.851-1.254,1.659-1.953,2.422
									c-0.708,0.756-1.448,1.478-2.215,2.168c-0.765,0.693-1.571,1.335-2.386,1.962c0.755-0.7,1.504-1.401,2.224-2.131
									c0.717-0.732,1.402-1.493,2.051-2.282c0.644-0.792,1.265-1.6,1.813-2.455c0.559-0.848,1.036-1.743,1.46-2.657
									c0.189-0.467,0.391-0.928,0.539-1.407c0.167-0.473,0.292-0.958,0.409-1.442c0.226-0.971,0.336-1.967,0.309-2.958
									c-0.03-0.989-0.178-1.976-0.484-2.914c-0.146-0.471-0.332-0.929-0.549-1.368c-0.213-0.433-0.476-0.878-0.746-1.223
									l0.79-0.38c0.093,0.555,0.219,1.106,0.272,1.668c0.05,0.563,0.12,1.123,0.112,1.69c0.027,0.565-0.009,1.131-0.046,1.695
									c-0.048,0.563-0.124,1.127-0.232,1.682c-0.44,2.22-1.37,4.354-2.749,6.137c-1.357,1.8-3.061,3.296-4.912,4.524
									c-0.933,0.606-1.906,1.144-2.905,1.621C419.983,224.094,418.956,224.513,417.896,224.819z"/>
							</g>
							<g>
								<path style="fill:#4D1A04;" d="M398.311,240.75c0,0,7.02-1.476,10.574-11.698c0,0-3.125,1.072-4.99-1.886
									c-2.654-4.209-0.203-9.915,3.002-9.281c3.205,0.634,4.942,10.982,4.942,10.982s2.563-1.464,2.013-7.871
									c0,0,18.123,0.265,17.857-16.408c0,0-2.461-5.916-12.477-8.996c-10.016-3.08-24.017,2.373-27.528,10.761
									C381.096,231.701,400.056,229.738,398.311,240.75z"/>
								<path style="fill:#351003;" d="M403.895,227.166c-1.807-2.866-1.245-6.421,0.307-8.201
									c-3.349-6.605-3.272-15.604-0.247-22.616c-5.589,1.965-10.393,5.565-12.251,10.005
									c-10.609,25.348,8.351,23.384,6.606,34.397c0,0,7.02-1.476,10.574-11.698C408.885,229.052,405.76,230.124,403.895,227.166z"
									/>
							</g>
						</g>
					</g>
				</g>
				<g>
					<g>
						<g>
							<path style="fill:#141423;" d="M427.62,226.013c0,0,0.105,0.116,0.273,0.327c0.087,0.1,0.171,0.251,0.31,0.369
								c0.127,0.124,0.27,0.265,0.427,0.418c0.179,0.128,0.344,0.297,0.554,0.421c0.206,0.132,0.424,0.259,0.665,0.351
								c0.229,0.122,0.497,0.153,0.75,0.211l0.394,0.039l0.395-0.029c0.259-0.046,0.52-0.096,0.755-0.214
								c0.239-0.1,0.466-0.238,0.663-0.397c0.097-0.083,0.189-0.169,0.289-0.246c0.083-0.095,0.164-0.188,0.242-0.278
								c0.174-0.172,0.266-0.391,0.4-0.564c0.112-0.186,0.188-0.375,0.279-0.535c0.095-0.16,0.127-0.317,0.176-0.441
								c0.09-0.251,0.153-0.397,0.153-0.397s0.007,0.153-0.002,0.427c-0.012,0.135,0.002,0.307-0.044,0.494
								c-0.04,0.188-0.062,0.412-0.146,0.638c-0.099,0.219-0.158,0.487-0.329,0.716c-0.077,0.12-0.156,0.244-0.237,0.371
								c-0.098,0.114-0.209,0.224-0.318,0.339c-0.103,0.122-0.241,0.21-0.373,0.309c-0.13,0.102-0.268,0.198-0.428,0.258
								c-0.301,0.159-0.639,0.244-0.979,0.307l-0.517,0.021c-0.171-0.013-0.339-0.042-0.506-0.064
								c-0.325-0.074-0.649-0.172-0.916-0.335c-0.287-0.135-0.518-0.33-0.731-0.516c-0.221-0.176-0.367-0.404-0.526-0.582
								c-0.145-0.195-0.244-0.4-0.339-0.566c-0.104-0.165-0.138-0.325-0.194-0.449C427.664,226.163,427.62,226.013,427.62,226.013z"
								/>
						</g>
						<g>
							<path style="fill:#351003;" d="M425.634,221.367c0,0,0.324-0.635,1.091-1.34c0.191-0.176,0.407-0.36,0.65-0.534
								c0.25-0.163,0.502-0.364,0.802-0.506c0.289-0.163,0.604-0.306,0.942-0.418c0.325-0.14,0.695-0.192,1.049-0.277
								c0.367-0.037,0.739-0.084,1.108-0.056c0.37,0.041,0.735,0.058,1.071,0.189c0.342,0.097,0.656,0.225,0.925,0.408
								c0.281,0.154,0.528,0.32,0.713,0.528c0.195,0.19,0.372,0.361,0.5,0.535c0.121,0.181,0.213,0.347,0.289,0.48
								c0.148,0.269,0.215,0.424,0.215,0.424s-0.167-0.076-0.428-0.213c-0.129-0.07-0.286-0.15-0.449-0.251
								c-0.175-0.087-0.391-0.149-0.595-0.247c-0.203-0.106-0.446-0.155-0.687-0.221c-0.235-0.086-0.499-0.105-0.762-0.135
								c-0.257-0.06-0.539-0.017-0.813-0.034c-0.277,0.008-0.564,0.05-0.848,0.082c-0.286,0.066-0.575,0.094-0.858,0.185
								c-0.285,0.07-0.567,0.151-0.84,0.245c-0.553,0.166-1.065,0.376-1.521,0.544C426.256,221.122,425.634,221.367,425.634,221.367
								z"/>
						</g>
					</g>
					<g>
						<path style="fill:#FF885F;" d="M408.544,227.22c-0.255-0.099-0.504-0.225-0.732-0.395c-0.227-0.171-0.451-0.379-0.573-0.727
							c-0.053-0.181-0.044-0.393,0.034-0.583c0.084-0.186,0.203-0.326,0.333-0.439c0.257-0.227,0.537-0.346,0.811-0.462
							l-0.302,0.425c-0.115-0.819-0.248-1.657-0.427-2.451c-0.086-0.4-0.215-0.778-0.339-1.139
							c-0.075-0.165-0.142-0.346-0.233-0.475c-0.04-0.079-0.086-0.136-0.132-0.179c-0.043-0.06-0.089-0.099-0.125-0.114
							c-0.035-0.043-0.072-0.053-0.105-0.057c0.01-0.004-0.093-0.023,0.007-0.026l-0.16,0.017c-0.151,0.005-0.093,0.047-0.134,0.043
							c-0.025-0.006-0.091,0.072-0.141,0.099c-0.226,0.189-0.413,0.55-0.561,0.916c-0.307,0.747-0.502,1.587-0.7,2.435
							c-0.163-0.863-0.187-1.746-0.022-2.648c0.099-0.448,0.225-0.914,0.583-1.36c0.117-0.105,0.183-0.209,0.355-0.305
							c0.155-0.089,0.389-0.189,0.459-0.188l0.158-0.032l0.02-0.004l0.01-0.002l0.088-0.007l0.008,0.001l0.066,0.006l0.132,0.017
							c0.185,0.018,0.35,0.07,0.488,0.163c0.159,0.08,0.273,0.182,0.367,0.29c0.11,0.106,0.198,0.215,0.262,0.326
							c0.159,0.222,0.25,0.443,0.356,0.665c0.181,0.441,0.284,0.89,0.374,1.329c0.169,0.885,0.229,1.756,0.203,2.648l-0.01,0.353
							l-0.292,0.072c-0.231,0.057-0.459,0.125-0.635,0.215c-0.089,0.046-0.155,0.097-0.202,0.149
							c-0.041,0.053-0.062,0.111-0.072,0.197c-0.004,0.181,0.121,0.411,0.263,0.62C408.174,226.823,408.351,227.027,408.544,227.22z
							"/>
					</g>
				</g>
			</g>
			<g>
				<g>
					<path style="fill:#B4C069;" d="M330.009,267.068c0,0,4.771,24.607,18.581,40.174c0,0,23.602-7.784,34.65-15.316
						c0,0,9.29,2.762,16.823-4.017c7.533-6.779,19.083-42.685,2.511-42.936C386.002,244.721,376.963,246.479,330.009,267.068z"/>
					<path style="fill:#A3AA5E;" d="M386.636,274.077c-12.371,4.366-26.236,5.126-39.257,4.683
						c-4.883-0.166-9.731-0.579-14.542-1.211c2.757,8.549,7.726,20.644,15.753,29.693c0,0,23.602-7.784,34.65-15.316
						c0,0,9.29,2.762,16.823-4.017c4.529-4.076,10.501-18.673,10.95-29.727C404.139,265.082,396.143,270.722,386.636,274.077z"/>
				</g>
				<g>
					<g>
						<path style="fill:#FFAA91;" d="M404.554,245.884c0,0-19.817,4.367-16.29,22.84c3.527,18.474,21.496,1.512,22.168-6.718
							C411.103,253.778,404.554,245.884,404.554,245.884z"/>
						<path style="fill:#FFAA91;" d="M514.891,245.045c21.469-2.971,2.448-1.816-5.834-1.249c5.265-3.776-0.358-1.352-3.746,0.218
							c-2.363-0.16-16.782-1.052-29.382,0.024c-13.771,1.176-16.962,2.687-16.962,2.687s-21.832,1.176-28.214,1.511
							c-6.382,0.336-9.909-1.847-21.496-2.519c-11.588-0.672-20.489,8.061-19.985,15.115c0.504,7.054,16.458,3.863,16.458,3.863
							c12.092-3.527,46.855-1.847,60.963-3.359c14.107-1.512,48.703-11.252,48.703-11.252c16.626-0.504,0.168-1.344,0.168-1.344
							c24.183-1.847-0.168-2.015-0.168-2.015C540.418,244.037,514.891,245.045,514.891,245.045z"/>
					</g>
					<g>
						<path style="fill:#FF885F;" d="M394.964,268.922c0,0,0.096-0.186,0.362-0.483c0.116-0.167,0.32-0.303,0.533-0.497
							c0.109-0.094,0.227-0.195,0.353-0.303c0.139-0.087,0.288-0.18,0.444-0.278c0.319-0.185,0.655-0.43,1.056-0.624
							c0.407-0.184,0.846-0.382,1.316-0.595c0.939-0.432,2.071-0.716,3.276-1.116c1.238-0.26,2.574-0.592,4.002-0.85
							c1.438-0.198,2.944-0.433,4.528-0.612c3.143-0.239,6.495-0.493,9.848-0.748c1.675-0.131,3.36-0.171,5.015-0.245
							c1.655-0.067,3.284-0.134,4.86-0.198c3.152-0.147,6.096-0.169,8.618-0.217c5.044-0.086,8.408-0.035,8.408-0.035
							s-3.358,0.183-8.394,0.458c-1.259,0.061-2.623,0.126-4.066,0.196c-1.441,0.079-2.961,0.163-4.534,0.25
							c-1.572,0.08-3.197,0.163-4.848,0.247c-1.651,0.09-3.328,0.149-5.004,0.294c-3.355,0.221-6.71,0.441-9.855,0.648
							c-1.557,0.174-3.063,0.342-4.491,0.501c-1.421,0.212-2.749,0.5-3.985,0.719c-0.603,0.169-1.181,0.331-1.73,0.485
							c-0.55,0.154-1.083,0.272-1.547,0.481c-0.474,0.186-0.917,0.36-1.328,0.521c-0.405,0.172-0.744,0.395-1.069,0.562
							c-0.331,0.163-0.598,0.346-0.818,0.526c-0.221,0.176-0.437,0.301-0.558,0.454C395.075,268.74,394.964,268.922,394.964,268.922
							z"/>
					</g>
				</g>
			</g>
		</g>
		<g>
			<g>
				<g>
					<path style="fill:#FF885F;" d="M93.987,191.49c0,0-17.576,60.261-5.524,70.305c12.052,10.043,49.213,10.043,49.213,10.043
						s11.55,12.554,14.563,10.044c0,0,4.52,3.515,4.017-3.013c0,0,5.022,2.009,4.52-3.515c0,0,8.035,2.009,6.026-4.017
						c-2.009-6.026-9.039-16.572-13.056-16.572c-4.017,0-10.044,4.018-10.044,4.018l-37.161-11.55c0,0,15.065-36.157,11.55-47.707
						C114.576,187.975,100.013,179.94,93.987,191.49z"/>
					<path style="fill:#E57051;" d="M111.993,232.674c3.905-11.409,8.142-26.434,6.098-33.149
						c-3.515-11.55-18.078-19.585-24.104-8.035c0,0-4.371,14.989-7.259,31.262C95.399,225.27,103.473,229.635,111.993,232.674z"/>
				</g>
				<path style="fill:#8FC9CC;" d="M106.876,175.253c0,0-12.052,4.017-17.409,21.091c-5.357,17.074-6.026,19.752-6.026,19.752
					l31.805,12.722c0,0,7.7-17.074,8.704-24.439C124.954,197.014,106.876,175.253,106.876,175.253z"/>
			</g>
			<g>
				<path style="fill:#FF885F;" d="M329.507,459.15c-3.013-0.502-29.628-13.057-29.628-13.057s-14.023-22.44-27.911-44.432
					c-5.929,6.044-11.66,12.275-17.292,18.6c0.339,0.241,0.666,0.486,1.012,0.723c30.131,20.589,33.144,39.17,38.668,40.174
					c5.524,1.004,28.624,5.022,33.144,3.013C332.018,462.163,332.52,459.652,329.507,459.15z"/>
				<path style="fill:#FF885F;" d="M223.715,287.741c0,0,9.709,8.035,12.722,8.035c3.013,0,13.056,2.344,14.061,0
					c1.004-2.344,4.352-25.109-2.009-3.013c0,0,2.009-32.809-3.348-0.67c0,0-2.009-26.113-3.683-0.67c0,0-6.361-25.444-5.022-0.67
					L223.715,287.741z"/>
			</g>
		</g>
	</g>
</g>
</svg>
